<?xml version="1.0" encoding="utf-8"?>
<!-- Generator: Adobe Illustrator 27.5.0, SVG Export Plug-In . SVG Version: 6.00 Build 0)  -->
<svg version="1.1" xmlns="http://www.w3.org/2000/svg" xmlns:xlink="http://www.w3.org/1999/xlink" x="0px" y="0px"
	 viewBox="0 0 500 500" style="enable-background:new 0 0 500 500;" xml:space="preserve">
<g id="BACKGROUND">
	<rect style="fill:#00B9CA;" width="500" height="500"/>
</g>
<g id="OBJECTS">
	<g style="opacity:0.4;">
		<radialGradient id="SVGID_1_" cx="256.25" cy="287.25" r="391.7984" gradientUnits="userSpaceOnUse">
			<stop  offset="0" style="stop-color:#FFFFFF"/>
			<stop  offset="1" style="stop-color:#FFFFFF;stop-opacity:0"/>
		</radialGradient>
		<path style="fill:url(#SVGID_1_);" d="M326.182,0l-63.185,223.607c-2.565-0.432-5.2-0.655-7.887-0.655
			c-0.228,0-0.455,0.003-0.683,0.005L274.473,0H326.182z"/>
		
			<radialGradient id="SVGID_00000093872297409573381280000008682522443002583730_" cx="256.25" cy="287.2501" r="391.7991" gradientUnits="userSpaceOnUse">
			<stop  offset="0" style="stop-color:#FFFFFF"/>
			<stop  offset="1" style="stop-color:#FFFFFF;stop-opacity:0"/>
		</radialGradient>
		<path style="fill:url(#SVGID_00000093872297409573381280000008682522443002583730_);" d="M452.97,0L279.74,229.848
			c-2.625-1.603-5.42-2.952-8.348-4.025L383.76,0H452.97z"/>
		
			<radialGradient id="SVGID_00000144320494454656014430000002417508561553655184_" cx="256.2499" cy="287.25" r="391.7976" gradientUnits="userSpaceOnUse">
			<stop  offset="0" style="stop-color:#FFFFFF"/>
			<stop  offset="1" style="stop-color:#FFFFFF;stop-opacity:0"/>
		</radialGradient>
		<path style="fill:url(#SVGID_00000144320494454656014430000002417508561553655184_);" d="M218.455,240.295
			c-1.688,2.055-3.205,4.258-4.533,6.58L0,114.885V42.132L218.455,240.295z"/>
		
			<radialGradient id="SVGID_00000080171937156824500150000014372236604548199087_" cx="256.2501" cy="287.25" r="391.799" gradientUnits="userSpaceOnUse">
			<stop  offset="0" style="stop-color:#FFFFFF"/>
			<stop  offset="1" style="stop-color:#FFFFFF;stop-opacity:0"/>
		</radialGradient>
		<path style="fill:url(#SVGID_00000080171937156824500150000014372236604548199087_);" d="M208.187,277.095L0,315.872v-46.568
			l207.725-0.21c-0.01,0.418-0.015,0.835-0.015,1.255C207.71,272.64,207.872,274.892,208.187,277.095z"/>
		
			<radialGradient id="SVGID_00000045586506696158211350000018362462831459914928_" cx="256.25" cy="287.25" r="391.798" gradientUnits="userSpaceOnUse">
			<stop  offset="0" style="stop-color:#FFFFFF"/>
			<stop  offset="1" style="stop-color:#FFFFFF;stop-opacity:0"/>
		</radialGradient>
		<path style="fill:url(#SVGID_00000045586506696158211350000018362462831459914928_);" d="M210.712,253.71
			c-0.908,2.423-1.625,4.94-2.127,7.532L0,222.768v-50.053L210.712,253.71z"/>
		
			<radialGradient id="SVGID_00000054967243098004553730000011889918772993173917_" cx="256.25" cy="287.2501" r="391.7985" gradientUnits="userSpaceOnUse">
			<stop  offset="0" style="stop-color:#FFFFFF"/>
			<stop  offset="1" style="stop-color:#FFFFFF;stop-opacity:0"/>
		</radialGradient>
		<path style="fill:url(#SVGID_00000054967243098004553730000011889918772993173917_);" d="M500,40.708v73.087L294.055,243.33
			c-2.033-2.925-4.385-5.61-7.01-8.005L500,40.708z"/>
		
			<radialGradient id="SVGID_00000051346822801239144170000002262911171988992182_" cx="256.2501" cy="287.25" r="391.7988" gradientUnits="userSpaceOnUse">
			<stop  offset="0" style="stop-color:#FFFFFF"/>
			<stop  offset="1" style="stop-color:#FFFFFF;stop-opacity:0"/>
		</radialGradient>
		<path style="fill:url(#SVGID_00000051346822801239144170000002262911171988992182_);" d="M500,171.777V221.9l-198.633,38.075
			c-0.702-3.147-1.717-6.178-3.012-9.053L500,171.777z"/>
		
			<radialGradient id="SVGID_00000020366831600872215910000009082036355105009543_" cx="256.25" cy="287.2499" r="391.798" gradientUnits="userSpaceOnUse">
			<stop  offset="0" style="stop-color:#FFFFFF"/>
			<stop  offset="1" style="stop-color:#FFFFFF;stop-opacity:0"/>
		</radialGradient>
		<path style="fill:url(#SVGID_00000020366831600872215910000009082036355105009543_);" d="M245.62,223.902
			c-2.728,0.555-5.37,1.342-7.905,2.342L172.932,0h51.783L245.62,223.902z"/>
		
			<radialGradient id="SVGID_00000012466544044987071490000009065461864576183981_" cx="256.2383" cy="287.302" r="391.7981" gradientTransform="matrix(1.0039 0 0 1.0018 -0.9593 -0.5195)" gradientUnits="userSpaceOnUse">
			<stop  offset="0" style="stop-color:#FFFFFF"/>
			<stop  offset="1" style="stop-color:#FFFFFF;stop-opacity:0"/>
		</radialGradient>
		<path style="fill:url(#SVGID_00000012466544044987071490000009065461864576183981_);" d="M45.725,0l177.721,233.78
			c2.18-1.651,4.513-3.1,6.933-4.309L115.213,0H45.725z"/>
		
			<radialGradient id="SVGID_00000091013771920495289820000003943805755555335337_" cx="256.25" cy="287.2501" r="391.7984" gradientUnits="userSpaceOnUse">
			<stop  offset="0" style="stop-color:#FFFFFF"/>
			<stop  offset="1" style="stop-color:#FFFFFF;stop-opacity:0"/>
		</radialGradient>
		<path style="fill:url(#SVGID_00000091013771920495289820000003943805755555335337_);" d="M271.59,500h-42.793l16.71-183.223
			c2.998,0.615,6.098,0.95,9.273,0.97L271.59,500z"/>
		
			<radialGradient id="SVGID_00000081641763261607549170000006728497689315942820_" cx="256.2501" cy="287.2499" r="391.7992" gradientUnits="userSpaceOnUse">
			<stop  offset="0" style="stop-color:#FFFFFF"/>
			<stop  offset="1" style="stop-color:#FFFFFF;stop-opacity:0"/>
		</radialGradient>
		<path style="fill:url(#SVGID_00000081641763261607549170000006728497689315942820_);" d="M500,365.608v57.872L294.58,296.603
			c1.763-2.645,3.268-5.475,4.475-8.46L500,365.608z"/>
		
			<radialGradient id="SVGID_00000112593747505916873320000000522370816003106697_" cx="256.2501" cy="287.25" r="391.799" gradientUnits="userSpaceOnUse">
			<stop  offset="0" style="stop-color:#FFFFFF"/>
			<stop  offset="1" style="stop-color:#FFFFFF;stop-opacity:0"/>
		</radialGradient>
		<path style="fill:url(#SVGID_00000112593747505916873320000000522370816003106697_);" d="M212.847,291.837L0,423.932v-57.948
			l209.787-81.71C210.595,286.9,211.62,289.427,212.847,291.837z"/>
		
			<radialGradient id="SVGID_00000060026989249939331440000001982388228602941612_" cx="256.2501" cy="287.2499" r="391.799" gradientUnits="userSpaceOnUse">
			<stop  offset="0" style="stop-color:#FFFFFF"/>
			<stop  offset="1" style="stop-color:#FFFFFF;stop-opacity:0"/>
		</radialGradient>
		<path style="fill:url(#SVGID_00000060026989249939331440000001982388228602941612_);" d="M500,496.32v2.67
			c-0.313,0.34-0.63,0.673-0.943,1.01H425.06L281.003,310.06c2.715-1.775,5.235-3.82,7.525-6.098L500,496.32z"/>
		
			<radialGradient id="SVGID_00000157281244075285818690000011775810664036163741_" cx="256.25" cy="287.25" r="391.7992" gradientUnits="userSpaceOnUse">
			<stop  offset="0" style="stop-color:#FFFFFF"/>
			<stop  offset="1" style="stop-color:#FFFFFF;stop-opacity:0"/>
		</radialGradient>
		<path style="fill:url(#SVGID_00000157281244075285818690000011775810664036163741_);" d="M500,268.585v46.967l-198.12-37.47
			c0.412-2.515,0.627-5.1,0.627-7.732c0-0.59-0.01-1.18-0.032-1.765H500z"/>
		
			<radialGradient id="SVGID_00000075131918083661040830000000081413724098961080_" cx="256.2499" cy="287.2501" r="391.7975" gradientUnits="userSpaceOnUse">
			<stop  offset="0" style="stop-color:#FFFFFF"/>
			<stop  offset="1" style="stop-color:#FFFFFF;stop-opacity:0"/>
		</radialGradient>
		<path style="fill:url(#SVGID_00000075131918083661040830000000081413724098961080_);" d="M222.912,305.138L75.457,500H1.052
			c-0.352-0.378-0.7-0.758-1.052-1.138v-1.938l217.245-198.057C218.947,301.122,220.845,303.223,222.912,305.138z"/>
		
			<radialGradient id="SVGID_00000029026186267999743960000001567808665434813105_" cx="256.25" cy="287.25" r="391.7987" gradientUnits="userSpaceOnUse">
			<stop  offset="0" style="stop-color:#FFFFFF"/>
			<stop  offset="1" style="stop-color:#FFFFFF;stop-opacity:0"/>
		</radialGradient>
		<path style="fill:url(#SVGID_00000029026186267999743960000001567808665434813105_);" d="M237.13,314.223L184.402,500H134.96
			l94.66-189.68C231.987,311.835,234.5,313.142,237.13,314.223z"/>
		
			<radialGradient id="SVGID_00000121277699495415230320000008534726059860498562_" cx="256.25" cy="287.25" r="391.7988" gradientUnits="userSpaceOnUse">
			<stop  offset="0" style="stop-color:#FFFFFF"/>
			<stop  offset="1" style="stop-color:#FFFFFF;stop-opacity:0"/>
		</radialGradient>
		<path style="fill:url(#SVGID_00000121277699495415230320000008534726059860498562_);" d="M365.482,500h-49.475l-52.182-183.05
			c3.04-0.565,5.98-1.42,8.785-2.535L365.482,500z"/>
	</g>
	
		<radialGradient id="SVGID_00000076561912969716334190000004099326880813142159_" cx="247.1436" cy="266.6698" r="142.8168" gradientUnits="userSpaceOnUse">
		<stop  offset="0" style="stop-color:#FFFFFF"/>
		<stop  offset="1" style="stop-color:#FFFFFF;stop-opacity:0"/>
	</radialGradient>
	
		<circle style="opacity:0.8;fill:url(#SVGID_00000076561912969716334190000004099326880813142159_);" cx="250.498" cy="268.504" r="142.578"/>
	<ellipse style="opacity:0.15;fill:#0E2E38;" cx="248.807" cy="435.748" rx="93.76" ry="14.612"/>
	<g>
		<path style="fill:#64899A;" d="M256.343,374.866v33.193c-1.354-0.117-2.591-0.195-3.689-0.246
			c-1.098-0.054-2.06-0.078-2.857-0.088c-0.76,0.01-1.656,0.036-2.671,0.083c-0.964,0.046-2.036,0.115-3.202,0.207v-33.149H256.343z
			"/>
		<g>
			<rect x="232.964" y="339.798" style="fill:#1B4152;" width="33.85" height="19.482"/>
			<rect x="232.964" y="339.798" style="fill:#0E2E38;" width="33.85" height="9.741"/>
			<rect x="236.861" y="359.281" style="fill:#1B4152;" width="27.031" height="15.586"/>
			<rect x="236.861" y="359.281" style="fill:#0E2E38;" width="27.031" height="7.793"/>
		</g>
		<path style="fill:#05181E;" d="M202.67,337.12c0,0,23.232,5.358,47.828,5.358c24.596,0,47.507-5.358,47.507-5.358H202.67z"/>
		<g>
			<path style="fill:#64899A;" d="M334.758,257.73l-0.107,6.31l-0.136,8.058c-5.056-5.453-11.726-8.16-17.858-9.456
				c-1.739-0.365-3.431-0.618-5.034-0.789c-6.634-0.706-11.689,0.017-11.689,0.017v-12.663c4.335-0.343,8.224-0.302,11.689,0.005
				c1.822,0.156,3.524,0.387,5.114,0.672C329.289,252.132,334.758,257.73,334.758,257.73z"/>
			<path style="fill:#466773;" d="M334.758,257.73l-0.107,6.31c-12.68-9.463-29.683-9.013-34.717-8.638v-6.195
				C324.53,247.259,334.758,257.73,334.758,257.73z"/>
			<g>
				<g>
					<g>
						<g>
							<path style="fill:#64899A;" d="M340.359,247.746v49.679c0,0.153,0,0.309-0.005,0.463c0,0.088-0.002,0.173-0.005,0.258
								c-0.002,0.178-0.01,0.353-0.017,0.531c-0.005,0.171-0.015,0.339-0.024,0.509c-0.01,0.185-0.022,0.373-0.036,0.558
								c-0.049,0.641-0.117,1.271-0.207,1.9c-0.02,0.139-0.039,0.278-0.061,0.414c-0.061,0.392-0.129,0.784-0.204,1.171
								c-0.032,0.171-0.068,0.343-0.105,0.514c-0.034,0.166-0.071,0.331-0.11,0.494c-0.049,0.207-0.1,0.414-0.151,0.621
								c-0.039,0.156-0.08,0.312-0.122,0.465c-0.068,0.246-0.136,0.49-0.209,0.733c-0.071,0.231-0.141,0.463-0.217,0.692
								c-0.075,0.236-0.153,0.47-0.236,0.701c-0.041,0.117-0.083,0.231-0.127,0.348c-0.085,0.231-0.171,0.46-0.263,0.689
								c-0.044,0.115-0.09,0.227-0.136,0.341c-0.28,0.687-0.585,1.359-0.913,2.016c-0.095,0.195-0.195,0.39-0.297,0.58
								c-0.236,0.453-0.485,0.898-0.745,1.334c-0.122,0.209-0.248,0.416-0.377,0.623c-0.066,0.102-0.129,0.205-0.195,0.307
								c-0.132,0.204-0.265,0.409-0.402,0.609c-0.063,0.095-0.127,0.188-0.192,0.28c-0.209,0.307-0.426,0.606-0.65,0.904
								c-0.134,0.18-0.27,0.36-0.409,0.536c-0.952,1.213-1.992,2.352-3.115,3.407c-0.124,0.117-0.248,0.231-0.373,0.346
								c-0.373,0.339-0.753,0.667-1.142,0.989c-0.078,0.063-0.156,0.127-0.236,0.19c-0.753,0.606-1.537,1.179-2.348,1.712
								c-0.1,0.068-0.202,0.134-0.304,0.2c-1.081,0.694-2.209,1.32-3.378,1.873c-0.139,0.068-0.278,0.132-0.419,0.195
								c-0.336,0.153-0.677,0.302-1.02,0.443c-0.409,0.168-0.823,0.326-1.242,0.477c-0.175,0.063-0.353,0.127-0.531,0.185
								c-0.158,0.056-0.319,0.107-0.482,0.158c-0.146,0.049-0.295,0.095-0.443,0.139c-0.151,0.046-0.302,0.09-0.453,0.134
								c-0.012,0.005-0.024,0.007-0.039,0.012c-0.202,0.056-0.407,0.112-0.611,0.166c-0.156,0.041-0.312,0.08-0.47,0.119
								c-0.002,0-0.002,0.003-0.005,0.003c-0.102,0.024-0.204,0.049-0.307,0.073c-0.175,0.041-0.353,0.08-0.531,0.119
								c-0.343,0.073-0.689,0.141-1.037,0.202c-0.107,0.02-0.214,0.036-0.322,0.054c-0.061,0.012-0.124,0.022-0.188,0.032
								c-0.102,0.017-0.207,0.034-0.312,0.049c-0.417,0.063-0.838,0.117-1.259,0.161c-0.132,0.015-0.266,0.027-0.397,0.039
								c-0.397,0.036-0.796,0.066-1.201,0.088c-0.132,0.007-0.268,0.015-0.402,0.019c-0.404,0.017-0.809,0.024-1.215,0.024v-13.15
								c2.236,0,4.374-0.434,6.332-1.22c1.897-0.76,3.624-1.851,5.114-3.202c3.439-3.122,5.601-7.625,5.601-12.624v-49.679H340.359z
								"/>
						</g>
					</g>
					<path style="fill:#466773;" d="M340.359,247.746v49.679c0,0.153,0,0.309-0.005,0.463c0,0.088-0.002,0.173-0.005,0.258
						c-0.002,0.178-0.01,0.353-0.017,0.531c-0.005,0.171-0.015,0.339-0.024,0.509c-0.01,0.185-0.022,0.373-0.036,0.558
						c-0.049,0.641-0.117,1.271-0.207,1.9c-0.02,0.139-0.039,0.278-0.061,0.414c-0.061,0.392-0.129,0.784-0.204,1.171
						c-0.032,0.171-0.068,0.343-0.105,0.514c-0.034,0.166-0.071,0.331-0.11,0.494c-0.049,0.207-0.1,0.414-0.151,0.621
						c-0.039,0.156-0.08,0.312-0.122,0.465c-0.068,0.246-0.136,0.49-0.209,0.733c-0.071,0.231-0.141,0.463-0.217,0.692
						c-0.075,0.234-0.156,0.467-0.236,0.701c-0.041,0.117-0.083,0.231-0.127,0.348c-0.085,0.231-0.171,0.46-0.263,0.689
						c-0.044,0.115-0.09,0.227-0.136,0.341c-0.28,0.687-0.585,1.359-0.913,2.016c-0.097,0.195-0.195,0.387-0.297,0.58
						c-0.236,0.453-0.485,0.898-0.745,1.334c-0.124,0.209-0.251,0.416-0.377,0.623c-0.066,0.102-0.129,0.205-0.195,0.307
						c-0.132,0.204-0.265,0.407-0.402,0.609c-0.063,0.092-0.127,0.188-0.192,0.28c-0.209,0.307-0.426,0.606-0.65,0.904
						c-0.134,0.18-0.27,0.358-0.409,0.536c-0.952,1.213-1.992,2.352-3.115,3.407c-0.124,0.117-0.248,0.231-0.373,0.346
						c-0.373,0.339-0.753,0.667-1.142,0.989c-0.078,0.063-0.156,0.127-0.236,0.19c-0.753,0.606-1.537,1.179-2.348,1.712
						c-0.1,0.068-0.202,0.134-0.304,0.2c-1.081,0.694-2.209,1.32-3.378,1.873c-0.139,0.068-0.278,0.132-0.419,0.195
						c-0.336,0.153-0.677,0.302-1.02,0.443c-0.409,0.168-0.823,0.326-1.242,0.477c-0.175,0.063-0.353,0.127-0.531,0.185
						c-0.158,0.056-0.319,0.107-0.482,0.158c-0.146,0.049-0.295,0.095-0.443,0.139c-0.151,0.046-0.302,0.09-0.453,0.134
						c-0.012,0.005-0.024,0.007-0.039,0.012c-0.202,0.056-0.407,0.112-0.611,0.166c-0.156,0.041-0.312,0.08-0.47,0.119
						c-0.002,0-0.002,0.003-0.005,0.003c-0.102,0.024-0.204,0.049-0.307,0.073c-0.175,0.041-0.353,0.08-0.531,0.119
						c-0.343,0.073-0.689,0.141-1.037,0.202c-0.107,0.02-0.214,0.036-0.322,0.054c-0.061,0.012-0.124,0.022-0.188,0.032
						c-0.102,0.017-0.207,0.034-0.312,0.049c-0.417,0.063-0.838,0.117-1.259,0.161c-0.132,0.015-0.266,0.027-0.397,0.039
						c-0.397,0.039-0.799,0.068-1.201,0.088c-0.132,0.007-0.268,0.015-0.402,0.019c-0.404,0.017-0.809,0.024-1.215,0.024v-5.114
						c2.189,0,4.313-0.29,6.332-0.833c1.795-0.48,3.509-1.162,5.114-2.021c7.681-4.094,12.907-12.186,12.907-21.499v-50.41H340.359z
						"/>
				</g>
				<g>
					<path style="fill:#1B4152;" d="M349.126,247.746h-28.98c0-3.295,1.335-6.278,3.495-8.438c0.65-0.65,1.378-1.227,2.165-1.714
						c0.565-0.351,1.164-0.655,1.788-0.906l0.002-0.003c1.383-0.563,2.898-0.872,4.483-0.872h5.114c1.588,0,3.105,0.309,4.491,0.874
						C346.048,238.46,349.126,242.744,349.126,247.746z"/>
					<path style="fill:#1B4152;" d="M334.636,267.958L334.636,267.958c-5.851,0-10.593-4.743-10.593-10.593v-9.619h21.187v9.619
						C345.23,263.216,340.487,267.958,334.636,267.958z"/>
					<rect x="324.043" y="247.746" style="fill:#0E2E38;" width="21.187" height="4.627"/>
					<path style="fill:#2E6576;" d="M349.126,247.746c-6.575-13.15-23.32-10.153-23.32-10.153c0.565-0.351,1.164-0.655,1.788-0.906
						l0.002-0.003c1.383-0.563,2.898-0.872,4.483-0.872h5.114c1.588,0,3.105,0.309,4.491,0.874
						C346.048,238.46,349.126,242.744,349.126,247.746z"/>
				</g>
				<path style="opacity:0.3;fill:#05181E;" d="M321.608,310.049v15.32c-0.409,0.168-0.823,0.326-1.242,0.477
					c-0.175,0.063-0.353,0.127-0.531,0.185c-0.158,0.056-0.319,0.107-0.482,0.158c-0.146,0.049-0.295,0.095-0.443,0.139
					c-0.151,0.046-0.302,0.09-0.453,0.134c-0.012,0.005-0.024,0.007-0.039,0.012c-0.202,0.056-0.407,0.112-0.611,0.166
					c-0.156,0.041-0.312,0.08-0.47,0.119c-0.002,0-0.002,0.003-0.005,0.003c-0.102,0.024-0.204,0.049-0.307,0.073
					c-0.175,0.041-0.353,0.08-0.531,0.119v-13.703C318.391,312.492,320.117,311.401,321.608,310.049z"/>
			</g>
			<path style="opacity:0.3;fill:#05181E;" d="M316.737,249.884v12.719c-0.027,0.015-0.053,0.027-0.08,0.039
				c-1.739-0.365-3.431-0.618-5.034-0.789v-12.641C313.445,249.367,315.147,249.599,316.737,249.884z"/>
		</g>
		<g>
			<path style="fill:#64899A;" d="M166.238,257.73l0.107,6.31l0.136,8.058c5.056-5.453,11.726-8.16,17.858-9.456
				c1.739-0.365,3.431-0.618,5.034-0.789c6.634-0.706,11.689,0.017,11.689,0.017v-12.663c-4.335-0.343-8.224-0.302-11.689,0.005
				c-1.822,0.156-3.524,0.387-5.114,0.672C171.708,252.132,166.238,257.73,166.238,257.73z"/>
			<path style="fill:#466773;" d="M166.238,257.73l0.107,6.31c12.68-9.463,29.683-9.013,34.717-8.638v-6.195
				C176.466,247.259,166.238,257.73,166.238,257.73z"/>
			<g>
				<g>
					<g>
						<g>
							<path style="fill:#64899A;" d="M160.637,247.746v49.679c0,0.153,0,0.309,0.005,0.463c0,0.088,0.002,0.173,0.005,0.258
								c0.002,0.178,0.01,0.353,0.017,0.531c0.005,0.171,0.015,0.339,0.024,0.509c0.01,0.185,0.022,0.373,0.037,0.558
								c0.049,0.641,0.117,1.271,0.207,1.9c0.02,0.139,0.039,0.278,0.061,0.414c0.061,0.392,0.129,0.784,0.205,1.171
								c0.032,0.171,0.068,0.343,0.105,0.514c0.034,0.166,0.071,0.331,0.11,0.494c0.049,0.207,0.1,0.414,0.151,0.621
								c0.039,0.156,0.08,0.312,0.122,0.465c0.068,0.246,0.136,0.49,0.209,0.733c0.071,0.231,0.141,0.463,0.217,0.692
								c0.075,0.236,0.153,0.47,0.236,0.701c0.041,0.117,0.083,0.231,0.127,0.348c0.085,0.231,0.171,0.46,0.263,0.689
								c0.044,0.115,0.09,0.227,0.136,0.341c0.28,0.687,0.585,1.359,0.913,2.016c0.095,0.195,0.195,0.39,0.297,0.58
								c0.236,0.453,0.485,0.898,0.745,1.334c0.122,0.209,0.248,0.416,0.378,0.623c0.066,0.102,0.129,0.205,0.195,0.307
								c0.132,0.204,0.265,0.409,0.402,0.609c0.063,0.095,0.127,0.188,0.192,0.28c0.209,0.307,0.426,0.606,0.65,0.904
								c0.134,0.18,0.27,0.36,0.409,0.536c0.952,1.213,1.992,2.352,3.115,3.407c0.124,0.117,0.248,0.231,0.373,0.346
								c0.373,0.339,0.752,0.667,1.142,0.989c0.078,0.063,0.156,0.127,0.236,0.19c0.753,0.606,1.537,1.179,2.348,1.712
								c0.1,0.068,0.202,0.134,0.304,0.2c1.081,0.694,2.209,1.32,3.378,1.873c0.139,0.068,0.278,0.132,0.419,0.195
								c0.336,0.153,0.677,0.302,1.02,0.443c0.409,0.168,0.823,0.326,1.242,0.477c0.175,0.063,0.353,0.127,0.531,0.185
								c0.158,0.056,0.319,0.107,0.482,0.158c0.146,0.049,0.295,0.095,0.443,0.139c0.151,0.046,0.302,0.09,0.453,0.134
								c0.012,0.005,0.024,0.007,0.039,0.012c0.202,0.056,0.407,0.112,0.611,0.166c0.156,0.041,0.312,0.08,0.47,0.119
								c0.002,0,0.002,0.003,0.005,0.003c0.102,0.024,0.204,0.049,0.307,0.073c0.175,0.041,0.353,0.08,0.531,0.119
								c0.343,0.073,0.689,0.141,1.037,0.202c0.107,0.02,0.214,0.036,0.322,0.054c0.061,0.012,0.124,0.022,0.188,0.032
								c0.102,0.017,0.207,0.034,0.312,0.049c0.416,0.063,0.838,0.117,1.259,0.161c0.132,0.015,0.266,0.027,0.397,0.039
								c0.397,0.036,0.796,0.066,1.201,0.088c0.132,0.007,0.268,0.015,0.402,0.019c0.404,0.017,0.809,0.024,1.215,0.024v-13.15
								c-2.236,0-4.374-0.434-6.332-1.22c-1.897-0.76-3.624-1.851-5.114-3.202c-3.439-3.122-5.601-7.625-5.601-12.624v-49.679
								H160.637z"/>
						</g>
					</g>
					<path style="fill:#466773;" d="M160.637,247.746v49.679c0,0.153,0,0.309,0.005,0.463c0,0.088,0.002,0.173,0.005,0.258
						c0.002,0.178,0.01,0.353,0.017,0.531c0.005,0.171,0.015,0.339,0.024,0.509c0.01,0.185,0.022,0.373,0.037,0.558
						c0.049,0.641,0.117,1.271,0.207,1.9c0.02,0.139,0.039,0.278,0.061,0.414c0.061,0.392,0.129,0.784,0.205,1.171
						c0.032,0.171,0.068,0.343,0.105,0.514c0.034,0.166,0.071,0.331,0.11,0.494c0.049,0.207,0.1,0.414,0.151,0.621
						c0.039,0.156,0.08,0.312,0.122,0.465c0.068,0.246,0.136,0.49,0.209,0.733c0.071,0.231,0.141,0.463,0.217,0.692
						c0.075,0.234,0.156,0.467,0.236,0.701c0.041,0.117,0.083,0.231,0.127,0.348c0.085,0.231,0.171,0.46,0.263,0.689
						c0.044,0.115,0.09,0.227,0.136,0.341c0.28,0.687,0.585,1.359,0.913,2.016c0.097,0.195,0.195,0.387,0.297,0.58
						c0.236,0.453,0.485,0.898,0.745,1.334c0.124,0.209,0.251,0.416,0.378,0.623c0.066,0.102,0.129,0.205,0.195,0.307
						c0.132,0.204,0.265,0.407,0.402,0.609c0.063,0.092,0.127,0.188,0.192,0.28c0.209,0.307,0.426,0.606,0.65,0.904
						c0.134,0.18,0.27,0.358,0.409,0.536c0.952,1.213,1.992,2.352,3.115,3.407c0.124,0.117,0.248,0.231,0.373,0.346
						c0.373,0.339,0.752,0.667,1.142,0.989c0.078,0.063,0.156,0.127,0.236,0.19c0.753,0.606,1.537,1.179,2.348,1.712
						c0.1,0.068,0.202,0.134,0.304,0.2c1.081,0.694,2.209,1.32,3.378,1.873c0.139,0.068,0.278,0.132,0.419,0.195
						c0.336,0.153,0.677,0.302,1.02,0.443c0.409,0.168,0.823,0.326,1.242,0.477c0.175,0.063,0.353,0.127,0.531,0.185
						c0.158,0.056,0.319,0.107,0.482,0.158c0.146,0.049,0.295,0.095,0.443,0.139c0.151,0.046,0.302,0.09,0.453,0.134
						c0.012,0.005,0.024,0.007,0.039,0.012c0.202,0.056,0.407,0.112,0.611,0.166c0.156,0.041,0.312,0.08,0.47,0.119
						c0.002,0,0.002,0.003,0.005,0.003c0.102,0.024,0.204,0.049,0.307,0.073c0.175,0.041,0.353,0.08,0.531,0.119
						c0.343,0.073,0.689,0.141,1.037,0.202c0.107,0.02,0.214,0.036,0.322,0.054c0.061,0.012,0.124,0.022,0.188,0.032
						c0.102,0.017,0.207,0.034,0.312,0.049c0.416,0.063,0.838,0.117,1.259,0.161c0.132,0.015,0.266,0.027,0.397,0.039
						c0.397,0.039,0.799,0.068,1.201,0.088c0.132,0.007,0.268,0.015,0.402,0.019c0.404,0.017,0.809,0.024,1.215,0.024v-5.114
						c-2.189,0-4.313-0.29-6.332-0.833c-1.795-0.48-3.509-1.162-5.114-2.021c-7.681-4.094-12.907-12.186-12.907-21.499v-50.41
						H160.637z"/>
				</g>
				<g>
					<path style="fill:#1B4152;" d="M151.87,247.746h28.98c0-3.295-1.334-6.278-3.495-8.438c-0.65-0.65-1.378-1.227-2.165-1.714
						c-0.565-0.351-1.164-0.655-1.788-0.906l-0.002-0.003c-1.383-0.563-2.898-0.872-4.483-0.872h-5.114
						c-1.588,0-3.105,0.309-4.491,0.874C154.948,238.46,151.87,242.744,151.87,247.746z"/>
					<path style="fill:#1B4152;" d="M166.36,267.958L166.36,267.958c5.85,0,10.593-4.743,10.593-10.593v-9.619h-21.187v9.619
						C155.766,263.216,160.509,267.958,166.36,267.958z"/>
					
						<rect x="155.766" y="247.746" transform="matrix(-1 -1.224647e-16 1.224647e-16 -1 332.7198 500.1182)" style="fill:#0E2E38;" width="21.187" height="4.627"/>
					<path style="fill:#2E6576;" d="M151.87,247.746c6.575-13.15,23.32-10.153,23.32-10.153c-0.565-0.351-1.164-0.655-1.788-0.906
						l-0.002-0.003c-1.383-0.563-2.898-0.872-4.483-0.872h-5.114c-1.588,0-3.105,0.309-4.491,0.874
						C154.948,238.46,151.87,242.744,151.87,247.746z"/>
				</g>
				<path style="opacity:0.3;fill:#05181E;" d="M179.388,310.049v15.32c0.409,0.168,0.823,0.326,1.242,0.477
					c0.175,0.063,0.353,0.127,0.531,0.185c0.158,0.056,0.319,0.107,0.482,0.158c0.146,0.049,0.295,0.095,0.443,0.139
					c0.151,0.046,0.302,0.09,0.453,0.134c0.012,0.005,0.024,0.007,0.039,0.012c0.202,0.056,0.407,0.112,0.611,0.166
					c0.156,0.041,0.312,0.08,0.47,0.119c0.002,0,0.002,0.003,0.005,0.003c0.102,0.024,0.204,0.049,0.307,0.073
					c0.175,0.041,0.353,0.08,0.531,0.119v-13.703C182.605,312.492,180.879,311.401,179.388,310.049z"/>
			</g>
			<path style="opacity:0.3;fill:#05181E;" d="M184.259,249.884v12.719c0.027,0.015,0.053,0.027,0.08,0.039
				c1.739-0.365,3.431-0.618,5.034-0.789v-12.641C187.551,249.367,185.849,249.599,184.259,249.884z"/>
		</g>
		<rect x="240.514" y="286.953" style="fill:#05181E;" width="19.482" height="19.482"/>
		<path style="fill:#1B4152;" d="M316.494,308.749v21.187c0,3.95-3.234,7.184-7.184,7.184H191.687c-3.95,0-7.184-3.234-7.184-7.184
			v-21.187c0-3.911,3.168-7.118,7.065-7.181c0.002,0,0.002,0,0.002,0c0.039-0.003,0.078-0.003,0.117-0.003H309.31
			c1.388,0,2.686,0.399,3.787,1.091C315.132,303.925,316.494,306.187,316.494,308.749z"/>
		<path style="fill:#2E6576;" d="M313.097,302.656c-8.073,2.396-30.185,7.919-62.598,7.919c-40.995,0-58.588-8.835-58.928-9.008
			c0.039-0.003,0.078-0.003,0.117-0.003H309.31C310.698,301.565,311.996,301.964,313.097,302.656z"/>
		<g>
			<path style="fill:#05181E;" d="M311.623,184.212v79.869c0,18.28-16.901,33.101-37.747,33.101H227.12
				c-20.846,0-37.747-14.821-37.747-33.101v-79.869c0-29.603,27.367-53.602,61.125-53.602c16.879,0,32.16,6.001,43.221,15.701
				C304.78,156.01,311.623,169.41,311.623,184.212z"/>
			<path style="fill:#1B4152;" d="M311.623,184.212v69.617c0,18.282-16.901,33.102-37.747,33.102H227.12
				c-20.846,0-37.747-14.821-37.747-33.102v-69.617c0-16.012,8.005-30.38,20.697-40.201c9.283-7.186,21.075-11.938,34.074-13.114
				c0,0,0,0,0.002-0.002c2.087-0.188,4.206-0.285,6.351-0.285c16.879,0,32.16,6.001,43.221,15.7
				C304.78,156.009,311.623,169.411,311.623,184.212z"/>
			<path style="fill:#0E2E38;" d="M311.623,253.83L311.623,253.83c0,18.28-16.901,33.101-37.747,33.101H227.12
				c-20.846,0-37.747-14.821-37.747-33.101v-69.618c0-16.01,8.005-30.38,20.697-40.202c-0.117,0.491-6.591,39.129,10.474,68.391
				C247.819,259.169,311.623,253.83,311.623,253.83z"/>
			<path style="fill:#2E6576;" d="M311.623,184.212v16.109c0-29.286-12.062-64.225-67.479-69.424c0,0,0,0,0.002-0.002
				c2.087-0.188,4.206-0.285,6.351-0.285c16.879,0,32.16,6.001,43.221,15.7C304.78,156.009,311.623,169.411,311.623,184.212z"/>
		</g>
		<path style="fill:#0E2E38;" d="M316.494,319.342v10.593c0,3.95-3.234,7.184-7.184,7.184H191.687c-3.95,0-7.184-3.234-7.184-7.184
			v-10.593c0,0,28.736,9.498,65.996,9.498S316.494,319.342,316.494,319.342z"/>
		<rect x="243.923" y="374.866" style="fill:#466773;" width="12.42" height="12.907"/>
		<path style="fill:#1B4152;" d="M256.343,400.924v7.135c-1.354-0.117-2.591-0.195-3.689-0.246c-1.098-0.054-2.06-0.078-2.857-0.088
			c-0.76,0.01-1.656,0.036-2.671,0.083c-0.964,0.046-2.036,0.115-3.202,0.207v-7.091H256.343z"/>
		<g>
			<path style="fill:#1B4152;" d="M252.656,407.747l-0.002,0.066c-1.098-0.054-2.06-0.078-2.857-0.088
				C251.519,407.698,252.539,407.742,252.656,407.747z"/>
		</g>
		<g>
			<path style="fill:#1B4152;" d="M249.797,407.725c-0.76,0.01-1.656,0.036-2.671,0.083l-0.003-0.061
				C247.237,407.742,248.187,407.703,249.797,407.725z"/>
		</g>
		<path style="fill:#1B4152;" d="M303.348,427.02l-6.342,6.741c-9.826-9.249-22.643-13.316-31.666-15.099
			c-3.887-0.77-7.43-1.191-10.313-1.422h-0.086c-1.183,0-1.981,1.208-1.518,2.296l4.623,10.854c-5.601-3.896-11.202-3.896-16.803,0
			l5.004-10.808c0.506-1.093-0.292-2.342-1.497-2.342l0,0c-2.883,0.231-6.427,0.653-10.313,1.422
			c-9.023,1.783-21.839,5.849-31.666,15.099l-6.341-6.741c9.101-8.565,21.713-14.612,36.471-17.488
			c4.145-0.809,7.915-1.264,11.022-1.517c1.166-0.092,2.238-0.161,3.202-0.207c1.015-0.046,1.912-0.073,2.671-0.083
			c0.796,0.01,1.758,0.034,2.857,0.088c1.098,0.051,2.335,0.129,3.689,0.246c3.01,0.258,6.604,0.709,10.535,1.473
			C281.635,412.408,294.248,418.455,303.348,427.02z"/>
		<circle style="fill:#0E2E38;" cx="203.254" cy="433.069" r="9.254"/>
		<circle style="fill:#466773;" cx="203.254" cy="433.069" r="3.896"/>
		<g>
			<path style="fill:#2E6576;" d="M212.508,434.165c-0.605,0-1.096-0.491-1.096-1.096c0-4.498-3.66-8.158-8.158-8.158
				s-8.158,3.66-8.158,8.158c0,0.605-0.491,1.096-1.096,1.096s-1.096-0.491-1.096-1.096c0-5.707,4.643-10.35,10.35-10.35
				c5.707,0,10.35,4.643,10.35,10.35C213.604,433.674,213.113,434.165,212.508,434.165z"/>
		</g>
		<circle style="fill:#0E2E38;" cx="249.768" cy="433.069" r="9.254"/>
		<circle style="fill:#466773;" cx="249.768" cy="433.069" r="3.896"/>
		<g>
			<path style="fill:#2E6576;" d="M259.022,434.165c-0.605,0-1.096-0.491-1.096-1.096c0-4.498-3.66-8.158-8.158-8.158
				c-4.498,0-8.158,3.66-8.158,8.158c0,0.605-0.491,1.096-1.096,1.096c-0.605,0-1.096-0.491-1.096-1.096
				c0-5.707,4.643-10.35,10.35-10.35c5.707,0,10.35,4.643,10.35,10.35C260.117,433.674,259.627,434.165,259.022,434.165z"/>
		</g>
		<circle style="fill:#0E2E38;" cx="296.281" cy="433.069" r="9.254"/>
		<circle style="fill:#466773;" cx="296.281" cy="433.069" r="3.896"/>
		<g>
			<path style="fill:#2E6576;" d="M305.535,434.165c-0.605,0-1.096-0.491-1.096-1.096c0-4.498-3.66-8.158-8.158-8.158
				c-4.498,0-8.158,3.66-8.158,8.158c0,0.605-0.491,1.096-1.096,1.096c-0.605,0-1.096-0.491-1.096-1.096
				c0-5.707,4.643-10.35,10.35-10.35c5.707,0,10.35,4.643,10.35,10.35C306.631,433.674,306.14,434.165,305.535,434.165z"/>
		</g>
		<g>
			<g>
				<path style="fill:#FFFFFF;" d="M205.568,187.716v48.096h89.739v-48.096H205.568z M212.683,193.352
					c-0.163,0.475-0.616,0.818-1.149,0.818c-0.672,0-1.218-0.546-1.218-1.218c0-0.672,0.546-1.218,1.218-1.218
					c0.304,0,0.584,0.112,0.799,0.299c0.256,0.222,0.419,0.55,0.419,0.918C212.752,193.091,212.727,193.227,212.683,193.352z
					 M289.462,194.17c-0.672,0-1.218-0.546-1.218-1.218c0-0.672,0.546-1.218,1.218-1.218c0.672,0,1.218,0.546,1.218,1.218
					C290.68,193.624,290.134,194.17,289.462,194.17z"/>
				<path style="opacity:0.1;fill:#0E2E38;" d="M242.067,235.813h-36.5v-48.096h5.745c0.219,1.03,0.455,2.063,0.711,3.1
					c0.1,0.404,0.202,0.811,0.309,1.218c-0.214-0.188-0.494-0.299-0.799-0.299c-0.672,0-1.218,0.546-1.218,1.218
					c0,0.672,0.546,1.218,1.218,1.218c0.533,0,0.986-0.343,1.149-0.818c0.112,0.402,0.227,0.804,0.341,1.205
					c1.758,6.071,4.191,12.135,7.52,17.843C226.377,222.399,233.877,230.017,242.067,235.813z"/>
				<path style="opacity:0.5;fill:#0E2E38;" d="M212.023,190.816c-0.158-0.037-0.321-0.056-0.489-0.056
					c-1.21,0-2.192,0.981-2.192,2.192c0,1.21,0.981,2.192,2.192,2.192c0.575,0,1.101-0.222,1.49-0.587
					c0.431-0.399,0.701-0.969,0.701-1.605C213.726,191.91,212.998,191.038,212.023,190.816z M211.534,194.17
					c-0.672,0-1.218-0.546-1.218-1.218c0-0.672,0.546-1.218,1.218-1.218c0.304,0,0.584,0.112,0.799,0.299
					c0.256,0.222,0.419,0.55,0.419,0.918c0,0.139-0.024,0.275-0.068,0.399C212.52,193.827,212.067,194.17,211.534,194.17z"/>
				<path style="opacity:0.5;fill:#0E2E38;" d="M289.462,190.76c-1.21,0-2.192,0.981-2.192,2.192c0,1.21,0.981,2.192,2.192,2.192
					c1.21,0,2.192-0.981,2.192-2.192C291.654,191.742,290.673,190.76,289.462,190.76z M289.462,194.17
					c-0.672,0-1.218-0.546-1.218-1.218c0-0.672,0.546-1.218,1.218-1.218c0.672,0,1.218,0.546,1.218,1.218
					C290.68,193.624,290.134,194.17,289.462,194.17z"/>
			</g>
			<g>
				<path style="fill:#DEF8FF;" d="M211.534,192.563c-0.113,0-0.228-0.023-0.337-0.072c-0.418-0.187-0.605-0.676-0.419-1.094
					l26.91-60.273c0.187-0.418,0.677-0.605,1.094-0.419c0.418,0.187,0.605,0.676,0.419,1.094l-26.91,60.273
					C212.153,192.38,211.85,192.563,211.534,192.563z"/>
			</g>
			<g>
				<path style="fill:#DEF8FF;" d="M289.463,192.563c-0.312,0-0.61-0.177-0.751-0.478l-28.127-60.273
					c-0.193-0.415-0.014-0.908,0.4-1.101c0.415-0.194,0.907-0.014,1.101,0.4l28.127,60.273c0.193,0.415,0.014,0.907-0.4,1.101
					C289.699,192.538,289.58,192.563,289.463,192.563z"/>
			</g>
			<defs>
				<filter id="Adobe_OpacityMaskFilter" filterUnits="userSpaceOnUse" x="210.407" y="204.583" width="61.611" height="19.037">
					
						<feColorMatrix  type="matrix" values="-1 0 0 0 1  0 -1 0 0 1  0 0 -1 0 1  0 0 0 1 0" color-interpolation-filters="sRGB" result="source"/>
					<feFlood  style="flood-color:white;flood-opacity:1" result="back"/>
					<feBlend  in="source" in2="back" mode="normal"/>
				</filter>
			</defs>
			
				<mask maskUnits="userSpaceOnUse" x="210.407" y="204.583" width="61.611" height="19.037" id="SVGID_00000145760024220174429590000016426198598334031747_">
				<g style="filter:url(#Adobe_OpacityMaskFilter);">
					<rect x="209.829" y="203.911" style="opacity:0.2;fill:#466773;" width="81.338" height="9.01"/>
				</g>
			</mask>
			<g style="mask:url(#SVGID_00000145760024220174429590000016426198598334031747_);">
				<g>
					
						<text transform="matrix(1 0 0 1 210.4072 219.2417)" style="fill:#1B4152; font-family:'ChunkFive-Roman'; font-size:17.5133px;">VACANT</text>
				</g>
			</g>
		</g>
	</g>
	<g>
		<path style="fill:#FFFFFF;" d="M166.881,203.593c-13.706,0.721-14.29,1.305-15.011,15.011
			c-0.721-13.706-1.305-14.29-15.011-15.011c13.706-0.721,14.29-1.305,15.011-15.011
			C152.591,202.288,153.175,202.872,166.881,203.593z"/>
		<path style="fill:#FFFFFF;" d="M355.492,349.54c-13.706,0.721-14.29,1.305-15.011,15.011c-0.721-13.706-1.305-14.29-15.011-15.011
			c13.706-0.721,14.29-1.305,15.011-15.011C341.202,348.234,341.786,348.819,355.492,349.54z"/>
		<path style="fill:#FFFFFF;" d="M352.477,144.01c-13.706,0.721-14.29,1.305-15.011,15.011c-0.721-13.706-1.305-14.29-15.011-15.011
			c13.706-0.721,14.29-1.305,15.011-15.011C338.187,142.705,338.772,143.289,352.477,144.01z"/>
	</g>
	<g>
		<defs>
			
				<filter id="Adobe_OpacityMaskFilter_00000170246380713242788110000000862270039889731500_" filterUnits="userSpaceOnUse" x="161.661" y="29.269" width="185.626" height="47.468">
				
					<feColorMatrix  type="matrix" values="-1 0 0 0 1  0 -1 0 0 1  0 0 -1 0 1  0 0 0 1 0" color-interpolation-filters="sRGB" result="source"/>
				<feFlood  style="flood-color:white;flood-opacity:1" result="back"/>
				<feBlend  in="source" in2="back" mode="normal"/>
			</filter>
		</defs>
		
			<mask maskUnits="userSpaceOnUse" x="161.661" y="29.269" width="185.626" height="47.468" id="SVGID_00000172404744209937700120000000253888794068636858_">
			<g style="filter:url(#Adobe_OpacityMaskFilter_00000170246380713242788110000000862270039889731500_);">
				<rect x="158.097" y="34.363" style="opacity:0.1;fill:#FFFFFF;" width="197.648" height="18.041"/>
			</g>
		</mask>
		<g style="mask:url(#SVGID_00000172404744209937700120000000253888794068636858_);">
			<text transform="matrix(1 0 0 1 161.6611 68.4795)" style="fill:#FFFFFF; font-family:'BebasNeueBold'; font-size:46.1307px;">JOB VACANCY</text>
		</g>
		<g>
			<rect x="175.132" y="81.246" style="fill:none;" width="157.026" height="33.678"/>
			<text transform="matrix(1 0 0 1 175.1318 88.2671)"><tspan x="0" y="0" style="fill:#FFFFFF; font-family:'Dosis-Bold'; font-size:9.8896px;">Lorem</tspan><tspan x="26.534" y="0" style="fill:#FFFFFF; font-family:'Dosis-Bold'; font-size:9.8896px;"> </tspan><tspan x="28.58" y="0" style="fill:#FFFFFF; font-family:'Dosis-Bold'; font-size:9.8896px;">ipsum</tspan><tspan x="54.134" y="0" style="fill:#FFFFFF; font-family:'Dosis-Bold'; font-size:9.8896px;"> </tspan><tspan x="56.179" y="0" style="fill:#FFFFFF; font-family:'Dosis-Bold'; font-size:9.8896px;">dolor</tspan><tspan x="78.184" y="0" style="fill:#FFFFFF; font-family:'Dosis-Bold'; font-size:9.8896px;"> </tspan><tspan x="80.229" y="0" style="fill:#FFFFFF; font-family:'Dosis-Bold'; font-size:9.8896px;">sit</tspan><tspan x="89.732" y="0" style="fill:#FFFFFF; font-family:'Dosis-Bold'; font-size:9.8896px;"> </tspan><tspan x="91.778" y="0" style="fill:#FFFFFF; font-family:'Dosis-Bold'; font-size:9.8896px;">amet,</tspan><tspan x="115.068" y="0" style="fill:#FFFFFF; font-family:'Dosis-Bold'; font-size:9.8896px;"> </tspan><tspan x="117.114" y="0" style="fill:#FFFFFF; font-family:'Dosis-Bold'; font-size:9.8896px;">consecte</tspan><tspan x="153.992" y="0" style="fill:#FFFFFF; font-family:'Dosis-Bold'; font-size:9.8896px;">-</tspan><tspan x="0" y="11.868" style="fill:#FFFFFF; font-family:'Dosis-Bold'; font-size:9.8896px;">tuer</tspan><tspan x="16.911" y="11.868" style="fill:#FFFFFF; font-family:'Dosis-Bold'; font-size:9.8896px;"> </tspan><tspan x="19.795" y="11.868" style="fill:#FFFFFF; font-family:'Dosis-Bold'; font-size:9.8896px;">adipiscing</tspan><tspan x="62.072" y="11.868" style="fill:#FFFFFF; font-family:'Dosis-Bold'; font-size:9.8896px;"> </tspan><tspan x="64.957" y="11.868" style="fill:#FFFFFF; font-family:'Dosis-Bold'; font-size:9.8896px;">elit,</tspan><tspan x="79.88" y="11.868" style="fill:#FFFFFF; font-family:'Dosis-Bold'; font-size:9.8896px;"> </tspan><tspan x="82.765" y="11.868" style="fill:#FFFFFF; font-family:'Dosis-Bold'; font-size:9.8896px;">sed</tspan><tspan x="97.214" y="11.868" style="fill:#FFFFFF; font-family:'Dosis-Bold'; font-size:9.8896px;"> </tspan><tspan x="100.099" y="11.868" style="fill:#FFFFFF; font-family:'Dosis-Bold'; font-size:9.8896px;">diam</tspan><tspan x="121.006" y="11.868" style="fill:#FFFFFF; font-family:'Dosis-Bold'; font-size:9.8896px;"> </tspan><tspan x="123.89" y="11.868" style="fill:#FFFFFF; font-family:'Dosis-Bold'; font-size:9.8896px;">nonum</tspan><tspan x="153.993" y="11.868" style="fill:#FFFFFF; font-family:'Dosis-Bold'; font-size:9.8896px;">-</tspan><tspan x="0" y="23.735" style="fill:#FFFFFF; font-family:'Dosis-Bold'; font-size:9.8896px; letter-spacing:71;">my</tspan><tspan x="154.979" y="23.735" style="fill:#FFFFFF; font-family:'Dosis-Bold'; font-size:9.8896px;">. </tspan></text>
		</g>
	</g>
</g>
<g id="DESIGNED_BY_FREEPIK">
	<g>
		<g>
			<path style="fill:#FFFFFF;" d="M180.308,478.389v-0.161c-0.218,0.249-0.433,0.452-0.644,0.608
				c-0.212,0.156-0.441,0.275-0.689,0.357c-0.247,0.082-0.517,0.122-0.81,0.122c-0.388,0-0.747-0.082-1.078-0.246
				c-0.33-0.164-0.616-0.399-0.857-0.704c-0.242-0.305-0.425-0.662-0.549-1.074c-0.124-0.412-0.187-0.856-0.187-1.335
				c0-1.014,0.247-1.804,0.742-2.37c0.495-0.564,1.145-0.848,1.953-0.848c0.467,0,0.861,0.08,1.181,0.239
				c0.321,0.161,0.633,0.408,0.938,0.739v-2.392c0-0.333,0.066-0.584,0.199-0.754c0.132-0.17,0.321-0.255,0.566-0.255
				c0.246,0,0.434,0.078,0.567,0.234c0.133,0.156,0.199,0.386,0.199,0.691v7.147c0,0.309-0.071,0.54-0.213,0.694
				c-0.143,0.153-0.326,0.232-0.552,0.232c-0.222,0-0.404-0.08-0.549-0.24C180.38,478.913,180.308,478.685,180.308,478.389z
				 M177.12,476.008c0,0.439,0.068,0.813,0.205,1.122c0.137,0.309,0.323,0.541,0.561,0.696c0.237,0.157,0.497,0.236,0.777,0.236
				c0.285,0,0.545-0.075,0.781-0.224c0.235-0.147,0.423-0.376,0.564-0.682c0.141-0.308,0.21-0.691,0.21-1.149
				c0-0.432-0.07-0.803-0.21-1.114c-0.141-0.31-0.33-0.547-0.57-0.712c-0.24-0.164-0.502-0.245-0.787-0.245
				c-0.296,0-0.562,0.084-0.795,0.252c-0.233,0.168-0.415,0.409-0.543,0.724C177.184,475.228,177.12,475.592,177.12,476.008z"/>
			<path style="fill:#FFFFFF;" d="M187.454,476.418h-3.169c0.004,0.367,0.078,0.692,0.223,0.973
				c0.144,0.281,0.337,0.493,0.576,0.636c0.24,0.143,0.504,0.213,0.793,0.213c0.194,0,0.371-0.022,0.531-0.067
				c0.161-0.046,0.315-0.116,0.466-0.214c0.15-0.097,0.288-0.201,0.415-0.311c0.126-0.111,0.29-0.263,0.492-0.452
				c0.083-0.071,0.202-0.106,0.357-0.106c0.166,0,0.3,0.046,0.403,0.137c0.103,0.092,0.155,0.22,0.155,0.386
				c0,0.147-0.058,0.317-0.172,0.514c-0.116,0.195-0.288,0.384-0.52,0.564c-0.232,0.181-0.522,0.329-0.873,0.448
				c-0.35,0.119-0.753,0.179-1.208,0.179c-1.041,0-1.85-0.298-2.428-0.891c-0.578-0.594-0.866-1.399-0.866-2.416
				c0-0.48,0.071-0.924,0.213-1.332c0.143-0.41,0.351-0.762,0.623-1.055c0.273-0.293,0.609-0.517,1.009-0.674
				c0.399-0.156,0.843-0.233,1.33-0.233c0.633,0,1.176,0.132,1.629,0.4c0.454,0.267,0.794,0.612,1.019,1.035
				c0.225,0.424,0.338,0.855,0.338,1.294c0,0.408-0.117,0.672-0.35,0.793C188.206,476.356,187.877,476.418,187.454,476.418z
				 M184.284,475.497h2.938c-0.039-0.554-0.189-0.969-0.448-1.243c-0.26-0.275-0.6-0.413-1.024-0.413
				c-0.404,0-0.735,0.14-0.994,0.418C184.497,474.538,184.34,474.951,184.284,475.497z"/>
			<path style="fill:#FFFFFF;" d="M194.838,477.194c0,0.447-0.108,0.831-0.327,1.149c-0.217,0.318-0.538,0.561-0.964,0.725
				c-0.425,0.164-0.943,0.246-1.552,0.246c-0.582,0-1.08-0.09-1.496-0.268c-0.415-0.178-0.722-0.401-0.919-0.667
				c-0.198-0.269-0.297-0.535-0.297-0.806c0-0.178,0.063-0.33,0.191-0.456c0.126-0.126,0.287-0.19,0.481-0.19
				c0.17,0,0.3,0.042,0.391,0.125c0.091,0.083,0.179,0.2,0.261,0.35c0.166,0.29,0.366,0.504,0.597,0.647
				c0.232,0.143,0.547,0.214,0.947,0.214c0.324,0,0.59-0.072,0.798-0.217c0.208-0.146,0.311-0.31,0.311-0.496
				c0-0.285-0.107-0.492-0.323-0.623c-0.216-0.13-0.571-0.256-1.065-0.374c-0.558-0.139-1.012-0.284-1.362-0.437
				c-0.351-0.151-0.63-0.353-0.84-0.602c-0.21-0.25-0.314-0.557-0.314-0.921c0-0.324,0.097-0.631,0.291-0.92
				c0.194-0.288,0.48-0.52,0.858-0.691c0.377-0.173,0.833-0.259,1.368-0.259c0.42,0,0.796,0.043,1.13,0.131
				c0.335,0.087,0.614,0.204,0.837,0.351c0.224,0.146,0.393,0.309,0.51,0.486c0.117,0.178,0.175,0.352,0.175,0.522
				c0,0.186-0.062,0.339-0.186,0.457c-0.124,0.118-0.301,0.179-0.531,0.179c-0.167,0-0.308-0.048-0.424-0.144
				c-0.117-0.095-0.251-0.236-0.401-0.427c-0.123-0.158-0.266-0.285-0.433-0.38c-0.166-0.096-0.392-0.143-0.677-0.143
				c-0.293,0-0.536,0.061-0.73,0.188c-0.193,0.124-0.29,0.279-0.29,0.465c0,0.171,0.071,0.311,0.213,0.419
				c0.143,0.109,0.335,0.2,0.576,0.271c0.242,0.07,0.573,0.157,0.997,0.261c0.502,0.123,0.913,0.27,1.232,0.44
				c0.318,0.17,0.559,0.371,0.725,0.603C194.756,476.634,194.838,476.897,194.838,477.194z"/>
			<path style="fill:#FFFFFF;" d="M196.494,471.972c-0.226,0-0.419-0.069-0.579-0.208c-0.16-0.139-0.241-0.334-0.241-0.588
				c0-0.23,0.083-0.418,0.247-0.567c0.164-0.148,0.355-0.223,0.573-0.223c0.21,0,0.396,0.067,0.558,0.202
				c0.163,0.135,0.244,0.33,0.244,0.588c0,0.249-0.08,0.444-0.238,0.585C196.899,471.9,196.711,471.972,196.494,471.972z
				 M197.295,473.646v4.683c0,0.325-0.077,0.571-0.232,0.737c-0.155,0.165-0.35,0.249-0.587,0.249c-0.238,0-0.431-0.085-0.579-0.256
				c-0.149-0.17-0.223-0.413-0.223-0.73v-4.636c0-0.32,0.074-0.562,0.223-0.725c0.148-0.162,0.341-0.243,0.579-0.243
				c0.237,0,0.433,0.081,0.587,0.243C197.218,473.131,197.295,473.356,197.295,473.646z"/>
			<path style="fill:#FFFFFF;" d="M204.394,473.912v4.707c0,0.539-0.058,1.002-0.173,1.39c-0.114,0.388-0.298,0.708-0.552,0.962
				c-0.253,0.253-0.585,0.441-0.994,0.564c-0.41,0.123-0.919,0.184-1.529,0.184c-0.558,0-1.057-0.078-1.496-0.233
				c-0.439-0.157-0.777-0.359-1.015-0.607c-0.237-0.247-0.356-0.501-0.356-0.763c0-0.197,0.067-0.359,0.203-0.483
				c0.134-0.125,0.297-0.188,0.486-0.188c0.237,0,0.445,0.105,0.624,0.314c0.086,0.107,0.177,0.216,0.27,0.324
				c0.093,0.109,0.197,0.202,0.309,0.279c0.113,0.076,0.248,0.134,0.406,0.172c0.159,0.036,0.341,0.056,0.546,0.056
				c0.419,0,0.745-0.058,0.977-0.175c0.231-0.116,0.394-0.28,0.487-0.49c0.093-0.208,0.147-0.433,0.163-0.673
				c0.016-0.24,0.027-0.625,0.035-1.155c-0.25,0.349-0.537,0.614-0.864,0.796c-0.326,0.183-0.715,0.273-1.166,0.273
				c-0.542,0-1.016-0.139-1.422-0.416c-0.406-0.277-0.717-0.665-0.935-1.163c-0.218-0.499-0.326-1.074-0.326-1.728
				c0-0.486,0.065-0.927,0.198-1.317c0.133-0.393,0.322-0.723,0.567-0.992c0.246-0.269,0.528-0.472,0.849-0.608
				c0.32-0.137,0.673-0.204,1.057-0.204c0.459,0,0.857,0.088,1.193,0.263c0.336,0.178,0.649,0.453,0.938,0.829v-0.22
				c0-0.281,0.069-0.498,0.208-0.653c0.139-0.154,0.317-0.231,0.535-0.231c0.313,0,0.52,0.102,0.623,0.306
				C204.343,473.234,204.394,473.528,204.394,473.912z M199.699,475.967c0,0.656,0.143,1.153,0.43,1.489
				c0.287,0.337,0.658,0.505,1.113,0.505c0.269,0,0.523-0.072,0.762-0.217c0.24-0.145,0.435-0.362,0.585-0.653
				c0.15-0.291,0.226-0.643,0.226-1.06c0-0.66-0.145-1.176-0.436-1.543c-0.291-0.368-0.674-0.552-1.149-0.552
				c-0.463,0-0.834,0.176-1.113,0.528C199.838,474.816,199.699,475.317,199.699,475.967z"/>
			<path style="fill:#FFFFFF;" d="M206.97,473.621v0.196c0.285-0.376,0.597-0.652,0.935-0.828c0.338-0.176,0.727-0.265,1.167-0.265
				c0.427,0,0.809,0.094,1.146,0.279c0.336,0.186,0.588,0.449,0.754,0.789c0.107,0.198,0.176,0.412,0.208,0.642
				c0.032,0.229,0.048,0.522,0.048,0.879v3.015c0,0.325-0.074,0.571-0.223,0.737c-0.148,0.165-0.341,0.249-0.579,0.249
				c-0.242,0-0.438-0.085-0.588-0.256c-0.15-0.17-0.225-0.413-0.225-0.73v-2.7c0-0.534-0.075-0.943-0.223-1.226
				c-0.148-0.283-0.444-0.425-0.888-0.425c-0.289,0-0.552,0.086-0.789,0.258c-0.237,0.173-0.412,0.409-0.522,0.71
				c-0.079,0.241-0.119,0.692-0.119,1.352v2.03c0,0.328-0.077,0.576-0.229,0.74c-0.152,0.164-0.349,0.246-0.59,0.246
				c-0.234,0-0.426-0.085-0.576-0.256c-0.15-0.17-0.226-0.413-0.226-0.73v-4.683c0-0.31,0.067-0.54,0.202-0.692
				c0.135-0.152,0.319-0.228,0.552-0.228c0.143,0,0.271,0.033,0.387,0.102c0.114,0.067,0.207,0.168,0.276,0.302
				C206.935,473.263,206.97,473.428,206.97,473.621z"/>
			<path style="fill:#FFFFFF;" d="M216.829,476.418h-3.17c0.004,0.367,0.078,0.692,0.223,0.973c0.144,0.281,0.336,0.493,0.576,0.636
				c0.239,0.143,0.503,0.213,0.792,0.213c0.194,0,0.371-0.022,0.532-0.067c0.16-0.046,0.315-0.116,0.466-0.214
				c0.15-0.097,0.288-0.201,0.416-0.311c0.126-0.111,0.29-0.263,0.492-0.452c0.083-0.071,0.202-0.106,0.356-0.106
				c0.166,0,0.301,0.046,0.403,0.137c0.103,0.092,0.154,0.22,0.154,0.386c0,0.147-0.057,0.317-0.172,0.514
				c-0.115,0.195-0.288,0.384-0.52,0.564c-0.231,0.181-0.522,0.329-0.872,0.448c-0.351,0.119-0.753,0.179-1.208,0.179
				c-1.041,0-1.85-0.298-2.428-0.891c-0.577-0.594-0.866-1.399-0.866-2.416c0-0.48,0.071-0.924,0.214-1.332
				c0.142-0.41,0.351-0.762,0.623-1.055c0.273-0.293,0.609-0.517,1.009-0.674c0.399-0.156,0.843-0.233,1.33-0.233
				c0.633,0,1.175,0.132,1.629,0.4c0.453,0.267,0.792,0.612,1.019,1.035c0.225,0.424,0.338,0.855,0.338,1.294
				c0,0.408-0.117,0.672-0.351,0.793C217.581,476.356,217.253,476.418,216.829,476.418z M213.659,475.497h2.938
				c-0.04-0.554-0.189-0.969-0.448-1.243c-0.259-0.275-0.6-0.413-1.023-0.413c-0.404,0-0.736,0.14-0.995,0.418
				C213.872,474.538,213.715,474.951,213.659,475.497z"/>
			<path style="fill:#FFFFFF;" d="M223.435,478.389v-0.161c-0.218,0.249-0.432,0.452-0.644,0.608
				c-0.211,0.156-0.441,0.275-0.689,0.357c-0.246,0.082-0.517,0.122-0.809,0.122c-0.389,0-0.748-0.082-1.078-0.246
				c-0.33-0.164-0.617-0.399-0.858-0.704c-0.242-0.305-0.425-0.662-0.549-1.074c-0.124-0.412-0.187-0.856-0.187-1.335
				c0-1.014,0.248-1.804,0.742-2.37c0.495-0.564,1.146-0.848,1.953-0.848c0.467,0,0.861,0.08,1.181,0.239
				c0.32,0.161,0.633,0.408,0.938,0.739v-2.392c0-0.333,0.066-0.584,0.199-0.754c0.132-0.17,0.322-0.255,0.567-0.255
				s0.434,0.078,0.567,0.234c0.132,0.156,0.199,0.386,0.199,0.691v7.147c0,0.309-0.071,0.54-0.214,0.694
				c-0.143,0.153-0.326,0.232-0.552,0.232c-0.221,0-0.404-0.08-0.549-0.24C223.507,478.913,223.435,478.685,223.435,478.389z
				 M220.248,476.008c0,0.439,0.067,0.813,0.204,1.122c0.137,0.309,0.324,0.541,0.562,0.696c0.237,0.157,0.497,0.236,0.777,0.236
				c0.285,0,0.545-0.075,0.78-0.224c0.236-0.147,0.424-0.376,0.564-0.682c0.14-0.308,0.21-0.691,0.21-1.149
				c0-0.432-0.07-0.803-0.21-1.114c-0.141-0.31-0.331-0.547-0.57-0.712c-0.24-0.164-0.501-0.245-0.787-0.245
				c-0.296,0-0.562,0.084-0.795,0.252c-0.233,0.168-0.414,0.409-0.543,0.724C220.311,475.228,220.248,475.592,220.248,476.008z"/>
			<path style="fill:#FFFFFF;" d="M230.059,471.241v2.475c0.304-0.316,0.615-0.559,0.932-0.727c0.316-0.168,0.708-0.252,1.175-0.252
				c0.538,0,1.01,0.127,1.416,0.382c0.405,0.256,0.72,0.626,0.944,1.11c0.223,0.484,0.335,1.06,0.335,1.726
				c0,0.49-0.063,0.939-0.187,1.35c-0.125,0.409-0.306,0.765-0.544,1.065c-0.238,0.301-0.525,0.534-0.863,0.698
				c-0.339,0.164-0.712,0.246-1.119,0.246c-0.25,0-0.484-0.029-0.704-0.09c-0.22-0.059-0.407-0.137-0.561-0.234
				c-0.154-0.096-0.286-0.196-0.395-0.3c-0.109-0.103-0.253-0.257-0.431-0.463v0.161c0,0.304-0.073,0.535-0.22,0.691
				c-0.146,0.156-0.332,0.234-0.558,0.234c-0.23,0-0.413-0.078-0.549-0.234c-0.137-0.156-0.205-0.388-0.205-0.691v-7.077
				c0-0.328,0.066-0.577,0.199-0.744c0.133-0.168,0.318-0.252,0.555-0.252c0.25,0,0.441,0.079,0.576,0.239
				C229.992,470.716,230.059,470.943,230.059,471.241z M230.136,476.056c0,0.645,0.148,1.14,0.442,1.486
				c0.294,0.347,0.682,0.521,1.161,0.521c0.407,0,0.759-0.178,1.053-0.532c0.295-0.354,0.442-0.861,0.442-1.522
				c0-0.428-0.061-0.796-0.184-1.105c-0.123-0.309-0.296-0.547-0.522-0.715c-0.226-0.168-0.489-0.252-0.79-0.252
				c-0.309,0-0.585,0.084-0.826,0.252c-0.241,0.168-0.431,0.411-0.57,0.729C230.206,475.236,230.136,475.616,230.136,476.056z"/>
			<path style="fill:#FFFFFF;" d="M236.963,479.516l0.148-0.362l-1.995-5.021c-0.122-0.288-0.184-0.499-0.184-0.63
				c0-0.139,0.036-0.267,0.107-0.385c0.071-0.119,0.169-0.214,0.293-0.285c0.125-0.072,0.255-0.107,0.389-0.107
				c0.233,0,0.409,0.074,0.529,0.223c0.119,0.148,0.223,0.361,0.314,0.638l1.372,3.989l1.3-3.71c0.103-0.3,0.195-0.536,0.279-0.706
				c0.083-0.171,0.171-0.285,0.264-0.344c0.093-0.06,0.225-0.09,0.395-0.09c0.124,0,0.241,0.032,0.353,0.099
				c0.113,0.065,0.2,0.153,0.261,0.264c0.062,0.11,0.093,0.228,0.093,0.351c-0.017,0.074-0.042,0.182-0.078,0.32
				c-0.036,0.139-0.079,0.279-0.13,0.422l-2.113,5.532c-0.183,0.486-0.36,0.868-0.535,1.145c-0.174,0.276-0.404,0.49-0.691,0.638
				c-0.287,0.149-0.674,0.223-1.161,0.223c-0.475,0-0.831-0.051-1.068-0.153c-0.238-0.104-0.357-0.292-0.357-0.565
				c0-0.185,0.056-0.33,0.17-0.431c0.112-0.101,0.28-0.151,0.501-0.151c0.087,0,0.172,0.012,0.255,0.036
				c0.103,0.023,0.192,0.035,0.267,0.035c0.186,0,0.333-0.027,0.439-0.083c0.106-0.056,0.203-0.151,0.288-0.288
				C236.753,479.982,236.852,479.781,236.963,479.516z"/>
		</g>
		<g>
			<path style="fill:#FFFFFF;" d="M260.439,472.865h0.387v-0.486c0-0.51,0.061-0.911,0.191-1.211c0.127-0.3,0.347-0.517,0.654-0.653
				c0.307-0.136,0.727-0.204,1.26-0.204c0.95,0,1.421,0.23,1.421,0.696c0,0.149-0.05,0.278-0.15,0.385
				c-0.097,0.105-0.214,0.16-0.349,0.16c-0.063,0-0.174-0.012-0.329-0.037c-0.148-0.021-0.283-0.035-0.39-0.035
				c-0.293,0-0.479,0.088-0.566,0.26c-0.08,0.172-0.122,0.418-0.122,0.74v0.386h0.395c0.62,0,0.927,0.186,0.927,0.56
				c0,0.262-0.079,0.432-0.246,0.503c-0.163,0.071-0.39,0.107-0.681,0.107h-0.395v4.295c0,0.319-0.075,0.563-0.232,0.729
				c-0.15,0.171-0.346,0.254-0.589,0.254c-0.23,0-0.419-0.083-0.573-0.254c-0.153-0.167-0.227-0.41-0.227-0.729v-4.295h-0.446
				c-0.243,0-0.427-0.052-0.559-0.163c-0.131-0.107-0.197-0.25-0.197-0.424C259.624,473.058,259.896,472.865,260.439,472.865"/>
			<path style="fill:#FFFFFF;" d="M265.745,476.974v1.355c0,0.327-0.083,0.574-0.233,0.737c-0.154,0.166-0.35,0.246-0.586,0.246
				c-0.239,0-0.43-0.082-0.58-0.25c-0.148-0.165-0.225-0.41-0.225-0.733v-4.515c0-0.729,0.263-1.093,0.788-1.093
				c0.271,0,0.464,0.084,0.583,0.255c0.119,0.171,0.185,0.421,0.198,0.755c0.192-0.334,0.391-0.584,0.593-0.755
				c0.208-0.171,0.477-0.255,0.818-0.255c0.344,0,0.671,0.084,0.991,0.255c0.322,0.171,0.481,0.398,0.481,0.679
				c0,0.196-0.068,0.362-0.203,0.488c-0.138,0.13-0.284,0.194-0.441,0.194c-0.063,0-0.207-0.039-0.433-0.112
				c-0.229-0.071-0.431-0.108-0.603-0.108c-0.237,0-0.433,0.064-0.582,0.187c-0.151,0.128-0.269,0.311-0.353,0.554
				c-0.081,0.247-0.137,0.541-0.17,0.878C265.759,476.074,265.745,476.487,265.745,476.974"/>
			<path style="fill:#FFFFFF;" d="M273.195,476.416h-3.171c0.005,0.367,0.077,0.694,0.222,0.975
				c0.146,0.278,0.337,0.491,0.578,0.635c0.24,0.143,0.502,0.213,0.793,0.213c0.193,0,0.37-0.022,0.53-0.07
				c0.159-0.043,0.315-0.115,0.466-0.213c0.151-0.095,0.288-0.198,0.415-0.313c0.126-0.108,0.292-0.26,0.494-0.449
				c0.084-0.07,0.202-0.108,0.355-0.108c0.168,0,0.302,0.047,0.406,0.139c0.103,0.092,0.152,0.219,0.152,0.386
				c0,0.147-0.056,0.317-0.167,0.512c-0.117,0.198-0.29,0.386-0.523,0.566c-0.233,0.179-0.523,0.33-0.873,0.446
				c-0.35,0.119-0.754,0.179-1.207,0.179c-1.045,0-1.853-0.295-2.43-0.889c-0.577-0.595-0.869-1.401-0.869-2.417
				c0-0.479,0.073-0.925,0.217-1.335c0.141-0.411,0.349-0.76,0.625-1.054c0.272-0.295,0.605-0.519,1.007-0.675
				c0.4-0.155,0.842-0.233,1.33-0.233c0.632,0,1.176,0.134,1.629,0.403c0.453,0.265,0.797,0.61,1.019,1.034
				c0.226,0.426,0.339,0.855,0.339,1.296c0,0.405-0.118,0.669-0.352,0.791C273.947,476.355,273.619,476.416,273.195,476.416
				 M270.024,475.494h2.939c-0.039-0.553-0.186-0.969-0.446-1.241c-0.262-0.276-0.6-0.412-1.025-0.412
				c-0.403,0-0.735,0.137-0.995,0.418C270.237,474.537,270.078,474.949,270.024,475.494"/>
			<path style="fill:#FFFFFF;" d="M279.938,476.416h-3.171c0.004,0.367,0.078,0.694,0.222,0.975
				c0.145,0.278,0.337,0.491,0.576,0.635c0.239,0.143,0.503,0.213,0.794,0.213c0.192,0,0.371-0.022,0.528-0.07
				c0.162-0.043,0.316-0.115,0.469-0.213c0.151-0.095,0.287-0.198,0.415-0.313c0.124-0.108,0.29-0.26,0.492-0.449
				c0.085-0.07,0.204-0.108,0.355-0.108c0.168,0,0.302,0.047,0.406,0.139c0.104,0.092,0.15,0.219,0.15,0.386
				c0,0.147-0.055,0.317-0.171,0.512c-0.11,0.198-0.284,0.386-0.518,0.566c-0.232,0.179-0.525,0.33-0.872,0.446
				c-0.349,0.119-0.755,0.179-1.21,0.179c-1.041,0-1.849-0.295-2.429-0.889c-0.577-0.595-0.868-1.401-0.868-2.417
				c0-0.479,0.073-0.925,0.218-1.335c0.142-0.411,0.349-0.76,0.622-1.054c0.272-0.295,0.608-0.519,1.009-0.675
				c0.399-0.155,0.845-0.233,1.331-0.233c0.63,0,1.174,0.134,1.633,0.403c0.45,0.265,0.791,0.61,1.014,1.034
				c0.225,0.426,0.341,0.855,0.341,1.296c0,0.405-0.12,0.669-0.352,0.791C280.688,476.355,280.36,476.416,279.938,476.416
				 M276.767,475.494h2.938c-0.04-0.553-0.189-0.969-0.447-1.241c-0.263-0.276-0.601-0.412-1.026-0.412
				c-0.403,0-0.734,0.137-0.995,0.418C276.978,474.537,276.819,474.949,276.767,475.494"/>
			<path style="fill:#FFFFFF;" d="M283.487,473.634v0.193c0.304-0.375,0.621-0.65,0.953-0.827c0.324-0.178,0.698-0.267,1.113-0.267
				c0.497,0,0.96,0.13,1.38,0.386c0.419,0.259,0.749,0.635,0.993,1.129c0.243,0.497,0.366,1.081,0.366,1.759
				c0,0.497-0.07,0.957-0.21,1.375c-0.14,0.418-0.336,0.767-0.581,1.05c-0.245,0.282-0.534,0.502-0.868,0.654
				c-0.339,0.15-0.694,0.227-1.08,0.227c-0.461,0-0.852-0.093-1.165-0.279c-0.315-0.183-0.614-0.458-0.901-0.816v2.434
				c0,0.709-0.26,1.068-0.777,1.068c-0.307,0-0.506-0.092-0.608-0.274c-0.095-0.186-0.145-0.452-0.145-0.807v-6.996
				c0-0.31,0.066-0.537,0.2-0.692c0.134-0.149,0.319-0.227,0.553-0.227c0.23,0,0.416,0.078,0.56,0.233
				C283.417,473.114,283.487,473.337,283.487,473.634 M286.665,475.988c0-0.428-0.066-0.796-0.196-1.102
				c-0.131-0.308-0.313-0.542-0.542-0.705c-0.229-0.164-0.488-0.248-0.77-0.248c-0.446,0-0.824,0.178-1.131,0.527
				c-0.308,0.354-0.462,0.872-0.462,1.559c0,0.642,0.152,1.146,0.46,1.504c0.304,0.358,0.678,0.536,1.133,0.536
				c0.268,0,0.519-0.079,0.748-0.233c0.231-0.158,0.415-0.392,0.552-0.704C286.596,476.81,286.665,476.431,286.665,475.988"/>
			<path style="fill:#FFFFFF;" d="M289.925,471.967c-0.227,0-0.418-0.071-0.577-0.209c-0.162-0.139-0.242-0.333-0.242-0.585
				c0-0.23,0.082-0.419,0.248-0.569c0.164-0.146,0.354-0.222,0.571-0.222c0.212,0,0.398,0.066,0.559,0.199
				c0.162,0.137,0.244,0.334,0.244,0.592c0,0.249-0.079,0.444-0.236,0.584C290.332,471.896,290.145,471.967,289.925,471.967
				 M290.727,473.642v4.689c0,0.322-0.077,0.567-0.231,0.732c-0.156,0.168-0.351,0.25-0.588,0.25c-0.238,0-0.428-0.083-0.58-0.254
				c-0.147-0.173-0.223-0.415-0.223-0.728v-4.643c0-0.318,0.076-0.559,0.223-0.721c0.152-0.166,0.342-0.245,0.58-0.245
				c0.237,0,0.432,0.079,0.588,0.245C290.65,473.129,290.727,473.355,290.727,473.642"/>
			<path style="fill:#FFFFFF;" d="M295.952,478.573l-1.428-2.354l-0.88,0.83v1.291c0,0.312-0.083,0.551-0.248,0.718
				c-0.16,0.171-0.353,0.254-0.566,0.254c-0.249,0-0.447-0.082-0.588-0.25c-0.142-0.165-0.215-0.41-0.215-0.733v-6.915
				c0-0.358,0.071-0.632,0.207-0.82c0.14-0.19,0.341-0.283,0.596-0.283c0.25,0,0.445,0.086,0.594,0.257
				c0.145,0.169,0.221,0.422,0.221,0.752v3.933l1.822-1.914c0.227-0.234,0.395-0.4,0.517-0.486c0.119-0.087,0.262-0.13,0.432-0.13
				c0.203,0,0.371,0.064,0.509,0.192c0.133,0.129,0.2,0.292,0.2,0.483c0,0.237-0.221,0.556-0.659,0.951l-0.86,0.789l1.662,2.614
				c0.121,0.196,0.212,0.34,0.265,0.441c0.053,0.1,0.082,0.199,0.082,0.289c0,0.258-0.072,0.459-0.214,0.609
				c-0.14,0.147-0.327,0.221-0.554,0.221c-0.197,0-0.352-0.051-0.458-0.159C296.281,479.045,296.133,478.851,295.952,478.573"/>
			<path style="fill:#FFFFFF;" d="M299.475,479.313c-0.245,0-0.455-0.078-0.634-0.237c-0.178-0.156-0.268-0.379-0.268-0.666
				c0-0.241,0.086-0.449,0.256-0.622c0.172-0.174,0.38-0.262,0.63-0.262c0.248,0,0.46,0.088,0.64,0.258
				c0.174,0.172,0.263,0.383,0.263,0.626c0,0.283-0.089,0.505-0.263,0.662C299.919,479.234,299.711,479.313,299.475,479.313"/>
			<path style="fill:#FFFFFF;" d="M307.536,477.307c0,0.2-0.061,0.417-0.182,0.646c-0.12,0.232-0.306,0.448-0.554,0.656
				c-0.247,0.207-0.558,0.376-0.935,0.502c-0.376,0.126-0.801,0.191-1.27,0.191c-1.004,0-1.786-0.293-2.349-0.876
				c-0.56-0.584-0.841-1.368-0.841-2.35c0-0.667,0.128-1.253,0.387-1.765c0.255-0.51,0.628-0.904,1.113-1.184
				c0.487-0.28,1.073-0.419,1.746-0.419c0.422,0,0.806,0.062,1.158,0.185c0.351,0.122,0.646,0.282,0.891,0.474
				c0.242,0.197,0.429,0.402,0.556,0.62c0.13,0.221,0.192,0.426,0.192,0.617c0,0.192-0.07,0.357-0.214,0.492
				c-0.147,0.135-0.322,0.203-0.524,0.203c-0.137,0-0.248-0.036-0.338-0.105c-0.09-0.07-0.19-0.181-0.3-0.339
				c-0.198-0.299-0.403-0.525-0.622-0.674c-0.214-0.152-0.487-0.227-0.821-0.227c-0.476,0-0.864,0.187-1.158,0.561
				c-0.292,0.373-0.439,0.888-0.439,1.534c0,0.305,0.039,0.587,0.114,0.842c0.073,0.255,0.182,0.473,0.325,0.653
				c0.145,0.179,0.315,0.315,0.517,0.408c0.202,0.096,0.426,0.142,0.664,0.142c0.326,0,0.604-0.075,0.836-0.226
				c0.235-0.15,0.439-0.38,0.616-0.689c0.1-0.182,0.205-0.323,0.318-0.427c0.114-0.102,0.256-0.155,0.422-0.155
				c0.198,0,0.363,0.076,0.492,0.227C307.47,476.976,307.536,477.138,307.536,477.307"/>
			<path style="fill:#FFFFFF;" d="M314.53,476.019c0,0.481-0.076,0.928-0.223,1.337c-0.154,0.408-0.369,0.758-0.656,1.049
				c-0.284,0.293-0.626,0.518-1.02,0.676c-0.399,0.154-0.844,0.234-1.337,0.234c-0.49,0-0.934-0.08-1.325-0.239
				c-0.39-0.156-0.732-0.385-1.017-0.677c-0.288-0.298-0.505-0.646-0.657-1.048c-0.144-0.402-0.219-0.847-0.219-1.332
				c0-0.491,0.077-0.941,0.224-1.349c0.151-0.409,0.368-0.758,0.649-1.046c0.282-0.288,0.62-0.511,1.02-0.669
				c0.401-0.155,0.844-0.233,1.325-0.233c0.49,0,0.936,0.078,1.337,0.238c0.398,0.157,0.739,0.384,1.027,0.675
				c0.286,0.297,0.502,0.643,0.649,1.045C314.455,475.087,314.53,475.53,314.53,476.019 M312.902,476.019
				c0-0.661-0.146-1.176-0.436-1.543c-0.289-0.372-0.681-0.555-1.171-0.555c-0.317,0-0.597,0.083-0.839,0.246
				c-0.242,0.163-0.426,0.406-0.557,0.728c-0.13,0.321-0.196,0.695-0.196,1.124c0,0.425,0.064,0.792,0.193,1.108
				c0.13,0.319,0.314,0.56,0.553,0.728c0.241,0.167,0.522,0.253,0.846,0.253c0.49,0,0.882-0.185,1.171-0.557
				C312.756,477.182,312.902,476.669,312.902,476.019"/>
			<path style="fill:#FFFFFF;" d="M320.712,476.138v2.154c0,0.342-0.075,0.594-0.23,0.767c-0.156,0.171-0.357,0.256-0.611,0.256
				c-0.245,0-0.446-0.085-0.594-0.256c-0.155-0.173-0.233-0.425-0.233-0.767v-2.582c0-0.408-0.014-0.727-0.04-0.953
				c-0.028-0.221-0.105-0.409-0.227-0.552c-0.123-0.147-0.318-0.22-0.582-0.22c-0.531,0-0.879,0.182-1.048,0.551
				c-0.167,0.36-0.254,0.883-0.254,1.566v2.189c0,0.336-0.076,0.591-0.226,0.765c-0.155,0.171-0.355,0.258-0.603,0.258
				c-0.248,0-0.448-0.087-0.605-0.258c-0.157-0.174-0.235-0.429-0.235-0.765v-4.637c0-0.307,0.069-0.538,0.21-0.695
				c0.143-0.16,0.328-0.238,0.556-0.238c0.223,0,0.407,0.077,0.558,0.222c0.147,0.149,0.221,0.354,0.221,0.615v0.153
				c0.283-0.334,0.585-0.582,0.903-0.737c0.322-0.162,0.676-0.241,1.07-0.241c0.407,0,0.757,0.082,1.049,0.243
				c0.293,0.163,0.533,0.41,0.725,0.735c0.274-0.33,0.568-0.576,0.882-0.737c0.313-0.161,0.658-0.241,1.039-0.241
				c0.44,0,0.825,0.089,1.146,0.262c0.319,0.174,0.559,0.425,0.718,0.747c0.138,0.295,0.206,0.756,0.206,1.386v3.164
				c0,0.342-0.076,0.594-0.229,0.767c-0.154,0.171-0.359,0.256-0.612,0.256c-0.246,0-0.446-0.087-0.603-0.258
				c-0.156-0.174-0.235-0.429-0.235-0.765v-2.726c0-0.35-0.015-0.627-0.044-0.837c-0.029-0.21-0.11-0.388-0.238-0.529
				c-0.133-0.142-0.332-0.215-0.596-0.215c-0.214,0-0.417,0.066-0.609,0.192c-0.191,0.124-0.342,0.298-0.45,0.508
				C320.774,474.96,320.712,475.443,320.712,476.138"/>
		</g>
		<g>
			<path style="fill:#FFFFFF;" d="M245.272,475.626c-0.002-0.003-0.002-0.006-0.002-0.011
				C245.27,475.62,245.27,475.623,245.272,475.626z"/>
			<path style="fill:#FFFFFF;" d="M245.353,476.145c0.002,0,0.002,0,0.002,0c-0.031-0.147-0.055-0.294-0.074-0.438
				C245.3,475.852,245.324,475.999,245.353,476.145z"/>
			<path style="fill:#FFFFFF;" d="M245.89,477.648c-0.003-0.006-0.007-0.014-0.011-0.021
				C245.883,477.635,245.887,477.643,245.89,477.648z"/>
			<path style="fill:#FFFFFF;" d="M245.839,477.548c-0.014-0.027-0.027-0.056-0.041-0.083
				C245.811,477.494,245.825,477.521,245.839,477.548z"/>
			<path style="fill:#FFFFFF;" d="M245.504,476.724c0.08,0.25,0.175,0.493,0.286,0.724c-0.112-0.236-0.206-0.479-0.283-0.724
				C245.506,476.724,245.505,476.724,245.504,476.724z"/>
			<path style="fill:#FFFFFF;" d="M251.545,469.416c0.313,0,0.545,0.025,0.81,0.069l0.075-0.477c0,0-0.731-0.225-1.694-0.146
				l-0.076-0.26c0.299-0.063,0.523-0.328,0.523-0.646c0-0.364-0.296-0.659-0.661-0.659c-0.364,0-0.66,0.295-0.66,0.659
				c0,0.317,0.224,0.583,0.522,0.646l0.083,0.29c-1.021,0.141-1.834,0.539-1.834,0.539l0.144,0.44
				c0.618-0.206,1.154-0.331,1.64-0.384C250.895,469.438,251.253,469.416,251.545,469.416z"/>
			<path style="fill:#FFFFFF;" d="M245.878,471.827l0.004-0.005c0.024-0.031,0.047-0.061,0.07-0.089l-0.195-0.141l-0.305-0.223
				c-0.018,0.023-0.497,0.465-0.876,1.279c-0.016-0.025-0.035-0.051-0.056-0.074c-0.114-0.124-0.272-0.188-0.474-0.184
				c-0.002,0-0.006,0-0.009,0c-0.124,0-0.21-0.042-0.267-0.093c0.056-0.07,0.089-0.159,0.089-0.258c0-0.23-0.187-0.418-0.418-0.418
				c-0.23,0-0.418,0.188-0.418,0.418c0,0.232,0.188,0.418,0.418,0.418c0.036,0,0.071-0.006,0.104-0.013
				c0.103,0.114,0.266,0.214,0.505,0.209c0.123-0.001,0.213,0.03,0.273,0.097c0.069,0.076,0.093,0.185,0.1,0.267
				c0,0.001,0,0.003-0.001,0.003c-0.273,0.743-0.194,1.669-0.194,1.669l0.661,0.026c0.013-0.337,0.062-0.927,0.232-1.395
				C245.449,472.418,245.861,471.852,245.878,471.827z"/>
			<path style="fill:#FFFFFF;" d="M257.295,469.969c-0.23,0-0.418,0.187-0.418,0.418c0,0.035,0.005,0.07,0.015,0.103
				c-0.115,0.104-0.215,0.268-0.211,0.507c0.002,0.123-0.029,0.213-0.097,0.272c-0.053,0.048-0.119,0.072-0.185,0.088
				c-0.492-0.688-1.098-1.109-1.098-1.109l-0.474,0.509c0.358,0.326,0.724,0.734,1.08,1.244c0.246,0.352,0.499,0.806,0.71,1.259
				l0.64-0.304c0,0-0.292-0.723-0.703-1.37c0.071-0.025,0.143-0.063,0.207-0.12c0.125-0.113,0.186-0.272,0.183-0.474
				c-0.001-0.13,0.042-0.218,0.093-0.275c0.071,0.054,0.161,0.089,0.258,0.089c0.232,0,0.419-0.188,0.419-0.418
				C257.714,470.155,257.526,469.969,257.295,469.969z"/>
			<path style="fill:#FFFFFF;" d="M255.634,475.72c-0.881,0.429-2.33,0.996-4.238,1.262c-0.748,0.104-1.474,0.143-2.142,0.143
				c-0.869,0-1.637-0.064-2.227-0.14c-0.673-0.084-1.199-0.188-1.52-0.261c0.077,0.245,0.171,0.487,0.283,0.724
				c0.002,0.007,0.005,0.013,0.008,0.018c0.014,0.027,0.027,0.056,0.041,0.083c0.014,0.028,0.027,0.055,0.041,0.08
				c0.004,0.007,0.007,0.015,0.011,0.021c0.189,0.357,0.417,0.685,0.675,0.968c0.9,0.984,1.817,1.141,1.826,1.142l0.014,0.002
				l0.014,0.005c0.008,0.003,0.821,0.266,2.057,0.266c1.215,0,2.409-0.246,3.546-0.729c0.842-0.431,1.639-1.085,2.033-1.669
				c0.306-0.452,0.525-0.933,0.656-1.434c0.069-0.267,0.124-0.692,0.092-1.141C256.557,475.224,256.164,475.462,255.634,475.72z"/>
			<path style="fill:#FFFFFF;" d="M246.161,472.036c-0.025,0.037-0.407,0.578-0.709,1.408c-0.226,0.622-0.216,1.527-0.216,1.537
				v0.002c0,0.213,0.012,0.423,0.035,0.632c0,0.005,0,0.008,0.002,0.011c0.002,0.027,0.007,0.053,0.009,0.08
				c0.019,0.145,0.043,0.291,0.074,0.438c0.438,0.111,3.049,0.721,5.968,0.314c1.829-0.254,3.218-0.795,4.062-1.204
				c0.701-0.34,1.151-0.647,1.325-0.773c-0.173-0.643-0.651-1.65-1.09-2.279c-1.253-1.791-2.604-2.25-3.298-2.364
				c-0.265-0.044-0.477-0.068-0.777-0.068c-0.279,0-0.626,0.022-1.089,0.071c-0.464,0.048-0.982,0.17-1.583,0.372
				c-0.842,0.282-1.604,0.725-2.204,1.28l-0.02,0.019C246.56,471.593,246.374,471.765,246.161,472.036z M253.829,471.619
				c0.601,0,1.09,0.488,1.09,1.09c0,0.601-0.489,1.09-1.09,1.09s-1.089-0.489-1.089-1.09
				C252.74,472.107,253.228,471.619,253.829,471.619z M248.678,471.576c0.973,0,1.76,0.788,1.76,1.761
				c0,0.973-0.787,1.759-1.76,1.759c-0.972,0-1.76-0.786-1.76-1.759C246.918,472.364,247.706,471.576,248.678,471.576z"/>
		</g>
	</g>
</g>
</svg>
