<?xml version="1.0" encoding="utf-8"?>
<!-- Generator: Adobe Illustrator 25.0.1, SVG Export Plug-In . SVG Version: 6.00 Build 0)  -->
<svg version="1.1" id="Слой_1" xmlns="http://www.w3.org/2000/svg" xmlns:xlink="http://www.w3.org/1999/xlink" x="0px" y="0px"
	 viewBox="0 0 2957.51 1531.02" style="enable-background:new 0 0 2957.51 1531.02;" xml:space="preserve">
<style type="text/css">
	.st0{fill:#EAFAF0;}
	.st1{fill:#9BDDB6;}
	.st2{fill:#52C681;}
	.st3{fill:#C8EDD7;}
	.st4{fill:#84CEA2;}
	.st5{fill:#CEEDDA;}
	.st6{fill:#FFFFFF;}
	.st7{fill:#9FDDB9;}
	.st8{fill:#FFA412;}
	.st9{fill:#F0FFF8;}
	.st10{fill:#F0FFFA;}
	.st11{fill:#B0D4FF;}
	.st12{fill:#87CCA3;}
	.st13{fill:#F99746;}
	.st14{fill:#9ADBB4;}
	.st15{fill:#9BD3AF;}
	.st16{fill:#FFB27D;}
	.st17{fill:#233862;}
	.st18{fill:#A9453D;}
	.st19{fill:#ED975D;}
	.st20{fill:#2A4E96;}
	.st21{fill:#5F9AA8;}
	.st22{fill:#1E3D70;}
	.st23{fill:#ED7D2B;}
	.st24{fill:#163560;}
	.st25{fill:#B0D0FF;}
	.st26{fill:#98BAF4;}
	.st27{fill:#E8945B;}
	.st28{fill:#EBF3FA;}
	.st29{fill:#F2CCAA;}
	.st30{fill:#B5453C;}
	.st31{fill:#9ED8B5;}
	.st32{fill:#2B478B;}
	.st33{fill:#EBF3FF;}
	.st34{fill:#40AD6D;}
	.st35{fill:#D8EFDF;}
	.st36{fill:#213F7A;}
	.st37{fill:#E2915A;}
	.st38{fill:#2B8B68;}
</style>
<g>
	<path class="st0" d="M111.74,1525.7c0.14,0.1,2740.62-0.34,2740.62-0.34c90.22-192.45,90.07-286.47,100.34-396.78
		c56.69-609.69-402.53-703.43-537.06-728.85C2003.71,321.88,2191.19-63.28,1117.79,8.98c-98.38,6.62-330.34,60.09-410.28,94.74
		C651.44,128,440.19,236.63,378.21,420.4c-19.58,58-24.27,123.48-4.54,196.16c69.86,257.17-112.27,242.39-245.35,364.95
		C-49.29,1145.06-30.73,1412.56,111.74,1525.7z"/>
	<g>
		<g>
			<path class="st1" d="M1744.17,1525.53h0.38c2.21,0,3.99-1.82,3.94-4.03l-5.98-259.12l-17.61-2.05l15.02,261.19
				C1740.05,1523.76,1741.92,1525.53,1744.17,1525.53z"/>
		</g>
		<g>
			<path class="st2" d="M1846.8,1525.53h0.38c2.21,0,3.99-1.82,3.94-4.03l-5.98-259.12l-17.61-2.05l15.02,261.19
				C1842.67,1523.76,1844.54,1525.53,1846.8,1525.53z"/>
		</g>
		<g>
			<path class="st1" d="M1563.61,1525.53h-0.38c-2.21,0-3.99-1.82-3.94-4.03l5.98-259.12l17.61-2.05l-15.02,261.19
				C1567.74,1523.76,1565.87,1525.53,1563.61,1525.53z"/>
		</g>
		<path class="st1" d="M1858.47,1246.3v-177.56c0-31.24-25.33-56.57-56.57-56.57h-127.93c-31.24,0-56.57,25.33-56.57,56.57v184.35
			L1858.47,1246.3z"/>
		<path class="st2" d="M1594.47,1274.33h248.36c8.63,0,15.63-7,15.63-15.63v-12.4h-263.99V1274.33z"/>
		<path class="st3" d="M1563.87,1274.33h188.88c6.38,0,11.56-5.17,11.56-11.56v-4.92c0-6.38-5.17-11.56-11.56-11.56h-188.88
			c-6.38,0-11.56,5.17-11.56,11.56v4.92C1552.31,1269.16,1557.48,1274.33,1563.87,1274.33z"/>
	</g>
	<g>
		<rect x="1257.98" y="311.75" class="st4" width="737.49" height="636.63"/>
		<g>
			<rect x="1272.02" y="322.36" class="st5" width="709.11" height="613.33"/>
			<g>
				<polygon class="st6" points="1519.86,589.21 1364.47,589.21 1364.47,395.18 1390.82,371.43 1519.86,371.43 				"/>
				<polygon class="st7" points="1364.47,395.18 1389.98,395.18 1390.82,371.43 				"/>
				<rect x="1417.29" y="390.31" class="st7" width="49.75" height="2.37"/>
				<rect x="1405.58" y="397.42" class="st7" width="73.18" height="2.37"/>
				<rect x="1382.87" y="443.07" class="st7" width="121.51" height="3.05"/>
				<rect x="1382.87" y="452.32" class="st7" width="121.51" height="3.05"/>
				<rect x="1382.87" y="461.57" class="st7" width="121.51" height="3.05"/>
				<rect x="1382.87" y="569.82" class="st7" width="121.51" height="3.05"/>
				<rect x="1382.87" y="470.82" class="st7" width="121.51" height="3.05"/>
			</g>
			<g>
				<polygon class="st6" points="1699.28,858.42 1543.9,858.42 1543.9,664.38 1570.24,640.63 1699.28,640.63 				"/>
				<polygon class="st7" points="1543.9,664.38 1569.4,664.38 1570.24,640.63 				"/>
				<rect x="1596.71" y="659.52" class="st7" width="49.75" height="2.37"/>
				<rect x="1585" y="666.62" class="st7" width="73.18" height="2.37"/>
				<rect x="1562.29" y="712.27" class="st7" width="121.51" height="3.05"/>
				<rect x="1562.29" y="721.52" class="st7" width="121.51" height="3.05"/>
				<rect x="1562.29" y="730.77" class="st7" width="121.51" height="3.05"/>
				<rect x="1562.29" y="740.03" class="st7" width="121.51" height="3.05"/>
				<rect x="1562.29" y="768.49" class="st7" width="121.51" height="3.05"/>
				<rect x="1562.29" y="777.74" class="st7" width="121.51" height="3.05"/>
				<rect x="1562.29" y="788.47" class="st7" width="121.51" height="3.05"/>
			</g>
			<g>
				<rect x="1701.17" y="371.43" class="st7" width="85.8" height="75.64"/>
				<path class="st8" d="M1740.31,380.43c0-2.07,1.68-3.76,3.76-3.76s3.76,1.68,3.76,3.76c0,2.08-1.68,3.76-3.76,3.76
					S1740.31,382.51,1740.31,380.43z"/>
			</g>
			<g>
				
					<rect x="1701.17" y="473.74" transform="matrix(0.9976 -0.0696 0.0696 0.9976 -31.3909 122.6996)" class="st6" width="85.8" height="75.64"/>
				<path class="st7" d="M1738.64,487.75c-0.15-2.07,1.42-3.86,3.49-4.01c2.07-0.14,3.86,1.42,4.01,3.49
					c0.14,2.07-1.42,3.86-3.49,4.01C1740.58,491.38,1738.78,489.82,1738.64,487.75z"/>
			</g>
			<g>
				
					<rect x="1416.04" y="752.42" transform="matrix(0.9976 -0.0696 0.0696 0.9976 -51.4897 103.5181)" class="st6" width="85.8" height="75.64"/>
				<path class="st7" d="M1453.52,766.43c-0.14-2.07,1.42-3.86,3.49-4.01c2.07-0.14,3.86,1.42,4.01,3.49
					c0.14,2.07-1.42,3.86-3.49,4.01C1455.45,770.07,1453.66,768.5,1453.52,766.43z"/>
			</g>
			<g>
				
					<rect x="1306" y="804.25" transform="matrix(0.9999 -0.0103 0.0103 0.9999 -8.5649 13.8779)" class="st6" width="85.8" height="75.64"/>
				<path class="st7" d="M1344.9,817.98c-0.02-2.08,1.64-3.77,3.72-3.79c2.07-0.02,3.77,1.64,3.8,3.72c0.02,2.08-1.64,3.77-3.72,3.8
					C1346.62,821.72,1344.92,820.06,1344.9,817.98z"/>
			</g>
			<g>
				
					<rect x="1822.35" y="523.49" transform="matrix(0.9844 0.1759 -0.1759 0.9844 127.8434 -319.3962)" class="st9" width="85.8" height="75.64"/>
				<path class="st7" d="M1866.88,533.59c0.32-1.78,2.01-2.96,3.79-2.64s2.96,2.01,2.64,3.79s-2.01,2.96-3.79,2.64
					C1867.75,537.07,1866.57,535.37,1866.88,533.59z"/>
			</g>
			<g>
				
					<rect x="1569.08" y="473.74" transform="matrix(0.9942 -0.1076 0.1076 0.9942 -45.6844 176.4162)" class="st10" width="85.8" height="75.64"/>
				<path class="st7" d="M1605.76,484.5c-0.19-1.79,1.1-3.41,2.9-3.6c1.79-0.19,3.41,1.1,3.6,2.9c0.19,1.79-1.1,3.41-2.9,3.6
					C1607.57,487.59,1605.96,486.29,1605.76,484.5z"/>
			</g>
			<g>
				
					<rect x="1350.87" y="656.27" transform="matrix(0.978 -0.2085 0.2085 0.978 -114.102 305.9201)" class="st7" width="85.8" height="75.64"/>
				<path class="st8" d="M1386.24,669.83c-1.51-0.98-1.95-3-0.96-4.52c0.98-1.51,3-1.95,4.52-0.96c1.51,0.98,1.95,3,0.96,4.52
					C1389.78,670.38,1387.76,670.82,1386.24,669.83z"/>
			</g>
			<g>
				<g>
					<polygon class="st6" points="1652.81,447.07 1571.15,447.07 1571.15,392.2 1593.76,371.43 1652.81,371.43 					"/>
					<polygon class="st7" points="1570.71,392.2 1593.02,392.2 1593.76,371.43 					"/>
				</g>
				<path class="st11" d="M1612.28,378.43c0-1.48,1.2-2.68,2.69-2.68c1.48,0,2.68,1.2,2.68,2.68c0,1.48-1.2,2.69-2.68,2.69
					C1613.48,381.11,1612.28,379.91,1612.28,378.43z"/>
			</g>
			<g>
				<g>
					<polygon class="st6" points="1891.42,896.24 1809.76,896.24 1809.76,841.37 1832.37,820.59 1891.42,820.59 					"/>
					<polygon class="st7" points="1809.32,841.37 1831.63,841.37 1832.37,820.59 					"/>
				</g>
				<path class="st7" d="M1850.89,827.59c0-1.48,1.2-2.68,2.68-2.68c1.48,0,2.69,1.2,2.69,2.68c0,1.48-1.2,2.69-2.69,2.69
					C1852.09,830.28,1850.89,829.07,1850.89,827.59z"/>
			</g>
			<g>
				<g>
					<polygon class="st6" points="1928.68,787.34 1847.01,787.34 1847.01,732.47 1869.62,711.7 1928.68,711.7 					"/>
					<polygon class="st7" points="1846.58,732.47 1868.88,732.47 1869.62,711.7 					"/>
				</g>
				<path class="st7" d="M1888.14,718.7c0-1.48,1.2-2.68,2.68-2.68s2.69,1.2,2.69,2.68c0,1.48-1.2,2.68-2.69,2.68
					S1888.14,720.18,1888.14,718.7z"/>
			</g>
			<g>
				<g>
					<polygon class="st12" points="1820.91,787.34 1739.24,787.34 1739.24,732.47 1761.85,711.7 1820.91,711.7 					"/>
					<polygon class="st7" points="1738.8,732.47 1761.11,732.47 1761.85,711.7 					"/>
				</g>
				<path class="st13" d="M1780.37,718.7c0-1.48,1.2-2.68,2.68-2.68s2.69,1.2,2.69,2.68c0,1.48-1.2,2.68-2.69,2.68
					S1780.37,720.18,1780.37,718.7z"/>
			</g>
			<g>
				<g>
					<polygon class="st12" points="1951.72,428.14 1870.06,428.14 1870.06,373.27 1892.67,352.49 1951.72,352.49 					"/>
					<polygon class="st7" points="1869.62,373.27 1891.93,373.27 1892.67,352.49 					"/>
				</g>
				<path class="st13" d="M1911.19,359.49c0-1.48,1.2-2.68,2.68-2.68s2.69,1.2,2.69,2.68c0,1.48-1.2,2.68-2.69,2.68
					S1911.19,360.97,1911.19,359.49z"/>
			</g>
		</g>
	</g>
	<g>
		<path class="st14" d="M1145.18,296.35H987.77c-6.56,0-11.93-5.37-11.93-11.93v-152c0-6.56,5.37-11.93,11.93-11.93h157.41
			c6.56,0,11.93,5.37,11.93,11.93v152C1157.11,290.98,1151.74,296.35,1145.18,296.35z"/>
		<path class="st5" d="M1138.36,288.73H994.58c-5.99,0-10.9-4.9-10.9-10.9V139c0-5.99,4.9-10.9,10.9-10.9h143.78
			c5.99,0,10.9,4.9,10.9,10.9v138.83C1149.26,283.83,1144.35,288.73,1138.36,288.73z"/>
		<g>
			<g>
				<path class="st15" d="M1062.72,144.16c0-2.07,1.68-3.75,3.75-3.75c2.07,0,3.75,1.68,3.75,3.75c0,2.07-1.68,3.75-3.75,3.75
					C1064.4,147.91,1062.72,146.23,1062.72,144.16z"/>
				<path class="st15" d="M1093.02,149.47c1.01-1.81,3.29-2.47,5.11-1.46c1.81,1.01,2.47,3.29,1.46,5.11
					c-1.01,1.81-3.29,2.47-5.11,1.46C1092.66,153.56,1092.01,151.28,1093.02,149.47z"/>
				<path class="st15" d="M1118.98,170.09c1.74-1.12,4.07-0.62,5.19,1.12c1.12,1.74,0.62,4.07-1.12,5.19
					c-1.74,1.12-4.07,0.62-5.19-1.12C1116.73,173.54,1117.23,171.21,1118.98,170.09z"/>
				<path class="st15" d="M1131.83,202.01c2.07,0,3.75,1.68,3.75,3.76c0,2.07-1.68,3.75-3.75,3.75c-2.07,0-3.75-1.68-3.75-3.75
					C1128.08,203.69,1129.76,202.01,1131.83,202.01z"/>
				<path class="st15" d="M1125.27,239.05c1.47,1.47,1.47,3.84,0,5.31c-1.47,1.47-3.84,1.47-5.31,0c-1.47-1.47-1.47-3.84,0-5.31
					C1121.42,237.59,1123.8,237.59,1125.27,239.05z"/>
				<path class="st15" d="M1101.69,262.69c1.47,1.47,1.47,3.84,0,5.31c-1.47,1.47-3.84,1.47-5.31,0c-1.47-1.47-1.47-3.84,0-5.31
					C1097.84,261.23,1100.22,261.23,1101.69,262.69z"/>
				<path class="st15" d="M1062.72,274.88c0-2.07,1.68-3.75,3.75-3.75c2.07,0,3.75,1.68,3.75,3.75c0,2.07-1.68,3.75-3.75,3.75
					C1064.4,278.63,1062.72,276.95,1062.72,274.88z"/>
			</g>
			<g>
				<path class="st15" d="M1039.81,149.47c-1.01-1.81-3.29-2.47-5.11-1.46c-1.81,1.01-2.47,3.29-1.46,5.11
					c1.01,1.81,3.29,2.47,5.11,1.46C1040.16,153.56,1040.82,151.28,1039.81,149.47z"/>
				<path class="st15" d="M1013.85,170.09c-1.74-1.12-4.07-0.62-5.19,1.12c-1.12,1.74-0.62,4.07,1.12,5.19
					c1.74,1.12,4.07,0.62,5.19-1.12C1016.09,173.54,1015.59,171.21,1013.85,170.09z"/>
				<path class="st15" d="M1000.99,202.01c-2.07,0-3.75,1.68-3.75,3.76c0,2.07,1.68,3.75,3.75,3.75c2.07,0,3.76-1.68,3.76-3.75
					C1004.75,203.69,1003.07,202.01,1000.99,202.01z"/>
				<path class="st15" d="M1007.56,239.05c-1.47,1.47-1.47,3.84,0,5.31c1.47,1.47,3.84,1.47,5.31,0c1.47-1.47,1.47-3.84,0-5.31
					C1011.4,237.59,1009.02,237.59,1007.56,239.05z"/>
				<path class="st15" d="M1031.14,262.69c-1.47,1.47-1.47,3.84,0,5.31c1.47,1.47,3.84,1.47,5.31,0c1.47-1.47,1.47-3.84,0-5.31
					C1034.98,261.23,1032.6,261.23,1031.14,262.69z"/>
			</g>
		</g>
		<g>
			<path class="st15" d="M1065.46,205.76c0-2.07,1.68-3.76,3.76-3.76c2.07,0,3.75,1.68,3.75,3.76c0,2.07-1.68,3.75-3.75,3.75
				C1067.14,209.52,1065.46,207.84,1065.46,205.76z"/>
			<g>
				<rect x="1068.7" y="158.85" class="st15" width="1.03" height="46.91"/>
			</g>
			<g>
				
					<rect x="1065.37" y="194.4" transform="matrix(0.7865 -0.6176 0.6176 0.7865 109.8194 709.5491)" class="st15" width="31.62" height="3.08"/>
			</g>
		</g>
	</g>
	<g>
		<g>
			<path class="st16" d="M2100.44,1516.26c-0.74,10.09-14.97,10.2-31.13,8.32c-16.15-1.87-11.86,2.21-34.47,2.53
				c-22.61,0.31-30.41-7.16-31.51-10.39c-0.98-2.87,9.92-5.28,21.57-8.12c1.47-0.35,2.94-0.72,4.41-1.09
				c13.14-3.34,21.84-13.17,33.08-21.76c10.65-8.13,24.38-37.57,24.38-37.57l30.89-1.39c0,0-13.01,26.39-17.9,37.76
				c-2.87,6.69-1.65,14.91-0.4,21.22C2100.03,1509.19,2100.7,1512.7,2100.44,1516.26z"/>
			<path class="st17" d="M2069.31,1524.58c-16.15-1.87-11.86,2.21-34.47,2.53c-22.61,0.31-30.41-7.16-31.51-10.39
				c-0.98-2.87,9.92-5.28,21.57-8.12l0.14,0.21c0,0,14.56,7.82,33.19,5.94c15.18-1.52,30.67-7.86,41.14-8.99
				c0.67,3.43,1.34,6.94,1.07,10.49C2099.7,1526.34,2085.46,1526.45,2069.31,1524.58z"/>
		</g>
		<g>
			<path class="st16" d="M2313.81,1518.35c-0.73,10.09-14.96,10.21-31.12,8.35c-16.15-1.86-11.86,2.23-34.47,2.56
				c-22.61,0.34-30.42-7.13-31.52-10.36c-0.98-2.87,9.91-5.29,21.56-8.14c1.47-0.35,2.94-0.72,4.41-1.1
				c13.14-3.35,21.83-13.2,33.06-21.79c10.64-8.14,0.01-56.36,0.01-56.36l33.98-3.31c0,0-1.63,40.6-1.61,59.06
				c0.01,7.28,3.36,14.28,4.61,20.59C2313.4,1511.29,2314.07,1514.8,2313.81,1518.35z"/>
			<path class="st17" d="M2282.69,1526.7c-16.15-1.86-11.86,2.23-34.47,2.56c-22.61,0.34-30.42-7.13-31.52-10.36
				c-0.98-2.87,9.91-5.29,21.56-8.14l0.14,0.21c0,0,14.57,7.8,33.19,5.91c15.18-1.54,30.66-7.89,41.13-9.03
				c0.67,3.43,1.34,6.94,1.08,10.49C2313.07,1528.44,2298.84,1528.56,2282.69,1526.7z"/>
		</g>
		<path class="st18" d="M2214.64,684.99c-5.85-24.06,2.63-35.26,10.28-41.23c3.63-8.86,7.77-15.24,12-17.64
			c7.72-4.39,16.98-4.87,23.45-4.49c-1.67-1.72-4.95-2.35-4.95-2.35c4.01-0.6,12.97,3.38,12.97,3.38
			c55.84-21.51,64.61,60.7,63.44,79.8c-1.16,19.1-1.01,41.59,28.04,56.64c55.43,28.71-18.42,136.92-18.42,136.92
			c1.41-15.43-69.81-96.89-106.96-121.28c-9.05-13.32-12.26-36.84-12.5-38.69c1.56,18.65,4.75,29.11,7.6,35
			C2212.66,755.48,2210.16,718.05,2214.64,684.99z"/>
		<path class="st16" d="M2236.7,775.96c-0.19,0.08,17.94,9.5,31.57,5.77c12.83-3.5,21.21-20.13,21.03-20.16
			c-5.43-1.08-7-8.54-6.88-40.61l-2.46,0.48l-41.28,8.18c0,0,0.94,12.99,0.97,25.23C2239.67,765.12,2239.05,774.86,2236.7,775.96z"
			/>
		<path class="st19" d="M2238.68,729.61c0,0,0.94,12.99,0.97,25.23c23.1-0.65,35.31-21.73,40.32-33.41L2238.68,729.61z"/>
		<path class="st20" d="M2070.71,1464.53c-2.03,6.35,2.53,12.88,9.18,13.2l16.13,0.75l17.06,0.52c4.27,0.13,8.35-1.73,11.05-5.04
			c13.62-16.71,55.55-72.4,80.98-153.32c0.72-2.27,1.47-4.57,2.27-6.89c16.8-48.97,51.62-110.45,69.96-166.09
			c2.92-8.86,5.54-17.2,7.9-25.1c0.75-2.53,1.49-5.01,2.19-7.46c13.52-46.98,17.44-77.83,21.05-110.79l-132.5,1.06
			C2175.97,1005.36,2148.07,1222.17,2070.71,1464.53z"/>
		<path class="st6" d="M2194.52,929.23c0.33,63.05-9.25,90.1-9.25,90.1s56.73,28.82,124.16,7.61c0.79-0.25,55.83-12.81,55.83-12.81
			c-1.13-2.55-11.16-45.04-12.26-47.39c-14.24-30.57-25.05-43.97-26.73-53.37c-3.13-17.55-3.2-35.7-1.64-52.82
			c4.11-45.33,16.35-82.96,16.35-82.96c-18.37-4.18-35.58-11.52-54.7-18.69c-4.4,5.48-17.84,11.21-29.51,10.95
			c-13.43-0.3-17.79-6.05-17.09-12.32c-14.31,7.96-25.73,15.49-25.73,15.49c-12.16,21.13-36.83,41.65-38.62,74.06
			C2174.88,855.04,2194.51,927.46,2194.52,929.23z"/>
		<path class="st21" d="M2308.47,936.26c5.79,8.2,16.9,58.02,44.52,64.29c-14.24-35.51-25.05-51.08-26.73-62
			c-3.13-20.38-3.2-41.47-1.64-61.36c-9.25-16.21-16.15-27.32-16.15-27.32c-0.73-2.62-14.7-45.82-19.17-7.21
			C2284.83,881.28,2302,927.09,2308.47,936.26z"/>
		<path class="st16" d="M2230.96,741.2c0,0,54.66,0.9,54.7-33.15c0.04-34.05,7.12-56.86-27.78-58.88
			c-34.9-2.02-41.69,10.97-44.47,22.33C2210.63,682.87,2216.74,740.09,2230.96,741.2z"/>
		<path class="st18" d="M2232.98,648.34c0,0,14.96,39.94,37.93,45.85c22.97,5.91,32.93-0.25,32.93-0.25s-17.62-13.99-21.27-38.42
			C2282.57,655.52,2244.27,629.33,2232.98,648.34z"/>
		<path class="st18" d="M2236.69,651.59c0,0-11.18,8.92-13.9,17.59c-2.73,8.67-3.95,26.52-9.15,25.91c0,0-11.27-27.15,1.4-42.51
			C2228.47,636.29,2236.69,651.59,2236.69,651.59z"/>
		<polygon class="st16" points="2144.96,972.99 2119.14,1051.7 2133.87,1057.6 2176.55,988.07 		"/>
		<path class="st13" d="M2214.56,768.37c0,0-30.44,12.08-39.25,30.91c-8.81,18.83-22.15,145.15-27.46,158.12
			c-5.31,12.97-9.31,23.24-9.31,23.24s15.35,12.93,30.78,13.88C2184.76,995.48,2214.56,768.37,2214.56,768.37z"/>
		<path class="st13" d="M2239.67,757.52c0,0-31.62,78.12-32.55,93.93c-0.93,15.81-3.72,258.54-3.72,258.54s1.86,11.16-19.53,6.51
			c-21.39-4.65-26.97-9.3-26.97-9.3s20.46-149.73,14.88-201.81c-5.58-52.08,42.78-137.02,42.78-137.02L2239.67,757.52z"/>
		<path class="st22" d="M2096.02,1478.48l18.53,0.57c3.31,0.1,6.48-1.32,8.59-3.88c12.45-15.08,55.89-71.54,81.97-154.53
			c0.72-2.27,1.47-4.57,2.27-6.89c16.8-48.97,51.62-110.45,69.96-166.09c2.92-8.86,5.54-17.2,7.9-25.1
			c0.75-2.53,1.49-5.01,2.19-7.46l-19.51-14.81c0,0-58.58,94.86-76.72,184.13C2175.44,1361.97,2112.35,1455.28,2096.02,1478.48z"/>
		<path class="st20" d="M2265.87,1292.74c-0.32,41.07,1.63,132.61,6.63,177.36c0.46,4.1,3.92,7.19,8.04,7.19h13.82
			c5.83,0,10.19-0.04,13.08-0.08c2.51-0.04,4.65-1.84,5.13-4.29c13.75-69.96,23.59-128.08,30.79-178.3
			c6.03-42.04,11.38-78.07,15.5-109.1c4.15-31.22,7.03-57.36,8.06-79.45c0.16-3.48,0.28-6.86,0.34-10.15
			c0.07-3.3,0.08-6.51,0.06-9.63l-114.48-11.16C2254.29,1151.18,2266.06,1267.51,2265.87,1292.74z"/>
		<path class="st22" d="M2294.37,1477.28c5.23,0,9.29-0.03,12.15-0.07c3.04-0.04,5.65-2.22,6.23-5.21
			c13.65-69.56,23.44-127.4,30.61-177.4c6.03-42.04,11.38-78.07,15.5-109.1c4.15-31.22,7.03-57.36,8.06-79.45l-42.01,24.71
			c0,0,26.81,9.46,16.58,81.07C2331.28,1283.44,2308.61,1467.14,2294.37,1477.28z"/>
		<path class="st13" d="M2288.96,1105.34c0,0,8.06,29.14,35.96,25.42c27.9-3.72,67.57-20.46,67.57-20.46s-11.92-37.67-26.75-87.17
			c-17.95-59.92-40.17-137.17-50.64-185.89c-2.94-13.65-4.95-25.05-5.69-33.22l-23.15-44.91c0,0-34.51,77.46-36.37,96.99
			C2248.04,875.63,2288.96,1105.34,2288.96,1105.34z"/>
		<path class="st16" d="M2316.82,853.19l-30.55-94.08c0.08,0.04,38.58,11.46,57.95,21.24c0,0,12.11,15.61,19.6,51.61
			c0,0,7.91,86.45-9.76,118.07c0,0-55.8,11.16-145.08-19.53v-20.46c0,0,97.65,5.11,117.65,7.44L2316.82,853.19z"/>
		<path class="st23" d="M2290.2,897.02c1.25,31.62,8.69,93,75.02,125.86c0.18,0.08,0.35,0.18,0.53,0.25
			c-17.95-59.92-40.17-137.17-50.64-185.89C2302.93,855.45,2289.52,879.61,2290.2,897.02z"/>
		<path class="st13" d="M2286.27,759.11c0,0,56.63,3.99,70.27,34.37c13.64,30.38,17.98,131.44,0.62,161.2c0,0-23.9,6.81-66.17-1.1
			c-0.52-0.1-1.04-0.2-1.56-0.3c0,0-13.49-33.02-1.39-39.53c0,0,35.65,1.86,31.93-9.92
			C2316.24,892.06,2286.27,759.11,2286.27,759.11z"/>
		<g>
			<path class="st18" d="M2144.28,922.68l1.67,5.36l92.93-28.91c0,0,1.24-1.41,0.63-3.29c-0.68-2.07-2.3-2.08-2.3-2.08
				L2144.28,922.68z"/>
			<polygon class="st18" points="2137.56,927.75 2144.28,922.68 2145.95,928.04 			"/>
		</g>
		<path class="st16" d="M2122.81,1049.55c0,0-23.57,13.03-26.67,22.95c-3.1,9.93-0.97,30.71,2.77,30.4
			c3.74-0.31,9.33-22.33,12.43-23.88s7.44-6.2,7.44-2.79c0,3.41-3.1,9.61-1.55,10.54c1.55,0.93,6.51-8.68,9.93-10.54
			c3.41-1.86,4.85-17.2,8.16-21.32C2138.63,1050.79,2122.81,1049.55,2122.81,1049.55z"/>
		<path class="st16" d="M2208.98,910.04c0,0-21.08-12.98-29.93-10.99c-8.84,2-31.38,18.32-20.54,21.86
			c10.84,3.53,19.62-0.17,23.79,2.39s7.25,7.26,26.68,7.2C2228.41,930.44,2208.98,910.04,2208.98,910.04z"/>
	</g>
	<g>
		<path class="st24" d="M551.03,770.55c-3.53-6.82,77.1-31.36,78.38,35.91c0,0,151.05-3.71,78.93-87.91
			c-24.97-29.15-22.4-53.25-21.65-75.68c0.76-22.44-15.55-87.64-71.46-81.08c0,0-14.64-5.96-32.92,3.52
			C540.76,586.88,447.67,795.36,551.03,770.55z"/>
		<path class="st16" d="M797.99,845.75c0,0,9.83-14.97,17.76-15.26c7.92-0.29,22.6-4.4,21.43-1.47c-1.17,2.93-10.27,3.23-11.15,4.99
			c-0.88,1.76,13.5,4.4,17.61,4.7c4.11,0.29,13.79,0,13.5,2.05c-0.29,2.05-17.46,10.57-29.57,9.39
			c-12.11-1.17-27.08,3.52-27.08,3.52L797.99,845.75z"/>
		<path class="st25" d="M655.79,850.6c0,0,5.34,10.58,15.04,22.74c11.68,14.63,29.7,31.54,52.32,34.88
			c10.8,1.59,21.37-0.73,31.08-5.04c0.03-0.01,0.04-0.01,0.04-0.01c27.47-12.19,48.13-40.24,48.13-40.24
			c4.84-13.21-3.08-22.16-3.08-22.16s-55.47,12.48-60.75,9.84c-5.28-2.64-36.1-91.42-43.43-102.58
			c-7.34-11.16-32.35-16.95-32.35-16.95L655.79,850.6z"/>
		<path class="st26" d="M670.83,873.34c11.68,14.63,29.7,31.54,52.32,34.88c10.8,1.59,21.37-0.73,31.08-5.04
			c-1.07,0.14-28.51,3.53-39.45-16.03c-11.16-19.96-23.22-51.66-39.79-41.09C667.84,850.6,668.16,861.94,670.83,873.34z"/>
		<path class="st17" d="M448.84,1449.37c0,0-16.93,15.45-13.62,26.42c3.3,10.98,18.58,18.29,20.64,31.71
			c2.06,13.41,10.32,20.73,17.75,20.73c7.43,0,35.43,0,35.43,0s5.47-9.44-7.74-12.28c-13.21-2.85-18.19-18.61-17.37-33.24
			c0.83-14.63-1.24-34.15-1.24-34.15l-28.07-6.5L448.84,1449.37z"/>
		<path class="st17" d="M592.1,1455.93c0,0-6.09,65.44,1.34,69.1l95.1-0.19c0,0,0-10.98-15.27-13.42
			c-15.27-2.44-42.11-11.38-46.65-31.3C622.08,1460.2,592.1,1455.93,592.1,1455.93z"/>
		<path class="st16" d="M524.33,986.46c19.57-43.89,31.54-56.49,29.26-70.11c-1.7-10.14,5.18-189.03,5.18-189.03
			c2.32-0.72,6.98-1.36,9.52-1.93c8.03-1.78,14.67-7.42,17.44-15.16c3.33-9.33,5.98-23.1,5.92-40.36l2.51,0.49l42.15,8.35
			c0,0-0.96,13.27-0.99,25.76c0,0.1,0,0.21,0,0.31c-0.05,10.85,7.07,20.43,17.5,23.44c5.32,1.54,9.96,2.85,9.96,2.85
			s15.48,44.19,18.43,89.58c2.96,45.4-28.15,65.12,0.23,155.83C710.41,1069.14,513.52,1010.71,524.33,986.46z"/>
		<path class="st27" d="M636.3,678.71c0,0-0.96,13.27-0.99,25.76c-23.59-0.66-36.05-22.18-41.16-34.11L636.3,678.71z"/>
		<path class="st16" d="M644.18,690.54c0,0-55.81,0.92-55.85-33.84c-0.04-34.76-7.27-58.06,28.36-60.11
			c35.63-2.06,42.57,11.2,45.4,22.8S658.69,689.4,644.18,690.54z"/>
		<path class="st24" d="M642.11,595.73c0,0-15.28,40.78-38.73,46.81c-23.45,6.03-33.62-0.25-33.62-0.25s17.99-14.29,21.72-39.23
			C591.48,603.06,630.59,576.32,642.11,595.73z"/>
		<path class="st24" d="M638.33,599.04c0,0,11.33,4.24,15.99,12.5c4.56,8.08,8.45,18.78,7.54,31.91c0,0,11.51-27.72-1.43-43.4
			C646.72,583.43,638.33,599.04,638.33,599.04z"/>
		<path class="st28" d="M632.04,668.97c0,0,3.85,5.07,11.56,4.7c6.21-0.29,8.6-5.68,8.6-5.68S640.79,665.26,632.04,668.97z"/>
		<path class="st25" d="M518.94,806.46c0,0-1.42,19.98,0,43.96c0.94,15.89,17.02,37.18,19.3,42.45
			c5.72,13.21,12.18,15.36,12.18,15.36l49.93,12.24l17.56,4.3l55.36-16.53c0,0,25.22-70.39,15.09-110.01
			c-10.13-39.62-25.6-67.14-25.6-67.14s-45.18,44.24-104-3.75L518.94,806.46z"/>
		<path class="st29" d="M533.56,856.9c0.94,15.89,2.4,30.69,4.68,35.96c5.72,13.21,12.18,15.36,12.18,15.36l49.93,12.24l21.69-6.37
			c0,0-72.39-10.97-64.37-73.26L533.56,856.9z"/>
		<path class="st23" d="M669.75,918.9c0,0,27.42,85.34,29.18,114.4c1.76,29.06-52.41,412.77-54.59,426.16
			c-2.05,12.62-17.73,20.66-17.73,20.66s-7.21,4.25-17.49,1.35c-14.27-4.03-18.78-8.85-18.78-8.85s-21.34-273.66-8.13-371.42
			c13.21-97.76,13.36-182.3,13.36-182.3H669.75z"/>
		<path class="st13" d="M553.59,916.35c0,0-41.82,56.12-45.72,94.05c-3.9,37.93-6.12,171.18-14.42,208.16
			c-8.31,36.98-38.83,108.15-38.83,223.49c0,0,3.17,6.61,12.97,10.13c3.13,1.13,7.33,2.22,11.4,3.15c8.08,1.85,16.37-2.1,20.05-9.52
			c20.63-41.54,86.36-175.53,89.73-203.35c2.39-19.68,23.14-149.95,68.41-226.39c10.87-18.35-6.67-91.33-6.67-91.33L553.59,916.35z"
			/>
		<path class="st6" d="M633.28,669.9c0,0,0.96,4.1,11.16,3.47c0,0,8.56-0.53,8.29-5.03C652.73,668.34,644.43,665.13,633.28,669.9z"
			/>
		<path class="st17" d="M674.13,905.72c0,0-11.01,8.71-32.87,9.15c-26.12,0.53-90.84-6.66-90.84-6.66s-2.88,8.03-2.76,16.52
			c0,0,79.04,19.94,124.84,2.91C672.51,927.64,678.41,916.53,674.13,905.72z"/>
		<g>
			<path class="st6" d="M635.61,923.89c0-7.44,5.35-13.49,11.92-13.49c6.57,0,11.92,6.05,11.92,13.49c0,7.44-5.35,13.49-11.92,13.49
				C640.95,937.38,635.61,931.33,635.61,923.89z M639.56,923.89c0,5.26,3.57,9.54,7.97,9.54c4.39,0,7.97-4.28,7.97-9.54
				c0-5.26-3.57-9.54-7.97-9.54C643.13,914.35,639.56,918.63,639.56,923.89z"/>
		</g>
		
			<rect x="500.39" y="827.5" transform="matrix(-0.7542 -0.6567 0.6567 -0.7542 380.2751 1944.3512)" class="st30" width="107.38" height="146.99"/>
		<path class="st16" d="M568.69,921.42c0,0,29.67,3.47,29.58,10.51c-0.09,7.04-7.39,21.51-11.06,22.16
			c-3.67,0.64-24.15-19.57-24.15-19.57L568.69,921.42z"/>
		<path class="st25" d="M558.77,727.32c0,0-39.61,2.78-54.8,39.69c-15.19,36.91-44,98.89-44,109.32
			c0,10.43,16.09,42.57,102.53,61.05c0,0,8.94-9.4,8.4-16.84c0,0-53.95-46.34-53.81-51.76c0.27-10.24,8.85-23.77,56.22-71.16
			C586.18,784.74,558.77,727.32,558.77,727.32z"/>
	</g>
	<g>
		<g>
			<g>
				<path class="st31" d="M996.44,1526.22h-0.38c-2.21,0-3.99-1.82-3.94-4.03l5.98-259.12l17.61-2.05l-15.02,261.19
					C1000.57,1524.46,998.7,1526.22,996.44,1526.22z"/>
			</g>
			<g>
				<path class="st2" d="M893.82,1526.22h-0.38c-2.21,0-3.99-1.82-3.94-4.03l5.98-259.12l17.61-2.05l-15.02,261.19
					C897.94,1524.46,896.08,1526.22,893.82,1526.22z"/>
			</g>
			<g>
				<path class="st31" d="M1177,1526.22h0.38c2.21,0,3.99-1.82,3.94-4.03l-5.98-259.12l-17.61-2.05l15.02,261.19
					C1172.88,1524.46,1174.74,1526.22,1177,1526.22z"/>
			</g>
			<path class="st11" d="M882.15,1246.99v-177.56c0-31.24,25.33-56.57,56.57-56.57h127.93c31.24,0,56.57,25.33,56.57,56.57v184.35
				L882.15,1246.99z"/>
			<path class="st2" d="M1146.14,1275.02H897.78c-8.63,0-15.63-7-15.63-15.63v-12.4h263.99V1275.02z"/>
			<path class="st31" d="M1176.75,1275.02H987.87c-6.38,0-11.56-5.17-11.56-11.56v-4.92c0-6.38,5.17-11.56,11.56-11.56h188.88
				c6.38,0,11.56,5.17,11.56,11.56v4.92C1188.3,1269.85,1183.13,1275.02,1176.75,1275.02z"/>
		</g>
		<g>
			<path class="st17" d="M1168.49,1202.75c-18.33,31.9-41.38,44.21-41.38,44.21h-95.9
				C1031.21,1246.96,1182.47,1178.41,1168.49,1202.75z"/>
			<g>
				<path class="st16" d="M1094.84,1449.54c-2.5,2.86-2.82,6.06-1.58,9.48c0,0.01,0.01,0.04,0.02,0.05
					c2.29,6.32,9.84,13.38,18.62,20.43c1.12,0.91,2.12,1.73,2.99,2.49c0.23,0.2,0.46,0.4,0.67,0.6c0.18,0.16,0.35,0.32,0.52,0.47
					c8.19,7.55,5.1,9.27,19.81,24.58c16.77,17.45,28.31,17.76,31.59,16.17c2.78-1.35-2.87-10.61-9.12-21.01
					c-0.3-0.5-0.6-1.01-0.91-1.52c-0.83-1.38-1.66-2.79-2.49-4.18c-7.33-12.52-5.45-18.39-3.71-37.02
					c1.41-15.14,23.55-84.56,23.55-84.56l-32.13-5.54c0,0-9.68,55.28-20.34,63.8c-5.7,4.54-12.08,4.59-17.56,7.96
					c-0.39,0.23-0.77,0.47-1.14,0.72C1100.51,1444.54,1097.34,1446.67,1094.84,1449.54z"/>
				<path class="st17" d="M1094.84,1449.54c-2.5,2.86-2.82,6.06-1.58,9.48c0,0.01,0.01,0.04,0.02,0.05
					c2.8,6.31,10.17,13.34,18.65,20.36c1.11,0.92,2.09,1.77,2.96,2.56c0.23,0.2,0.46,0.4,0.67,0.6c0.18,0.16,0.35,0.32,0.52,0.47
					c8.19,7.55,5.1,9.27,19.81,24.58c16.77,17.45,28.31,17.76,31.59,16.17c2.78-1.35-2.87-10.61-9.12-21.01
					c-3.27-1.2-18.43-7.35-29.89-22.02c-10.1-12.88-16.83-29.44-23.7-39.03c-0.39,0.23-0.77,0.47-1.14,0.72
					C1100.51,1444.54,1097.34,1446.67,1094.84,1449.54z"/>
				<path class="st16" d="M1353.93,1429.47c1.98,9.92,16.12,8.26,31.92,4.4c15.8-3.86,12.04,0.73,34.52-1.76
					c22.48-2.49,29.29-10.87,29.98-14.21c0.61-2.97-10.49-4.01-22.41-5.38c-1.5-0.17-3-0.35-4.51-0.54
					c-13.45-1.69-23.3-10.37-35.52-17.5c-11.57-6.75-28.85-34.26-28.85-34.26l-30.83,2.44c0,0,16.18,24.57,22.44,35.26
					c3.68,6.28,3.48,14.59,3.03,21.01C1353.45,1422.41,1353.22,1425.98,1353.93,1429.47z"/>
				<path class="st17" d="M1385.84,1433.88c15.8-3.86,12.04,0.73,34.52-1.76c22.48-2.49,29.29-10.87,29.98-14.21
					c0.61-2.97-10.49-4.01-22.41-5.38l-0.11,0.23c0,0-13.48,9.56-32.19,10.01c-15.25,0.37-31.41-4-41.94-3.83
					c-0.24,3.49-0.47,7.05,0.24,10.55C1355.91,1439.39,1370.05,1437.74,1385.84,1433.88z"/>
				<path class="st17" d="M1235.78,1232.34l-28.82,77.55l-37.63,101.26c0,0-10.21,0.98-19.99-1.83c-9-2.6-19.33-9.41-19.33-9.41
					s10.45-108.72,29.94-171.14c4.99-16.02,10.59-28.98,16.77-36.27C1206.93,1156.8,1235.78,1232.34,1235.78,1232.34z"/>
				<path class="st32" d="M1206.48,1109.18c-18.88-6.09-72.73,1.73-126.83,12.32l-11.33-18.68l-116.84-9.13
					c0,0-38.56,85.5-17.45,139.98c3.1,8.01,9.27,13.14,19.78,13.31c0,0,1.7,0,1.71,0c0,0,69.54-0.04,92.12-0.04
					c58.11,0,122.98-39.94,131.37-41.62c13.74-2.75,19.23,24.72,32.96,53.57c13.74,28.84,129.11,127.74,129.11,127.74
					s17.73,0.18,25.06-2.57c7.88-2.95,10.76-6.79,10.76-6.79S1249.06,1122.92,1206.48,1109.18z"/>
				<path class="st17" d="M1063.73,762.59c-14.97-7.86-37.74-8.92-41.44-9.42c-44.28-5.95-70.92,58.39-72.49,77.88
					c-2.89,35.93-21.9,41.41-48.65,63.92c-53.65,45.12-37.92,97.55-8.58,117.04c17.6,11.69,48.63,0,48.63,0
					c0.44,0.31,84.85-47.19,126.45-70.1C1130.01,933.04,1101.87,782.62,1063.73,762.59z"/>
				<path class="st16" d="M1032.76,922.41c0.18,0.12-20.47,7.17-34.28,1.05c-12.99-5.74-22.84-27.12-22.64-27.13
					c5.91-0.27,12.4-5.44,17.4-39.35l2.52,0.9l42.32,15.23c0,0-3.07,13.58-5.05,26.51C1031.35,910.48,1030.45,920.87,1032.76,922.41
					z"/>
				<path class="st19" d="M1038.07,873.12c0,0-3.07,13.58-5.05,26.51c-24.31-4.38-33.84-28.59-37.27-41.73L1038.07,873.12z"/>
				<path class="st16" d="M1044.37,886.59c0,0-57.9-7.77-52.5-43.75c5.39-35.98,1.55-61.22,38.75-57.78
					c37.19,3.44,42.3,18.24,43.42,30.69C1075.16,828.2,1059.57,887.69,1044.37,886.59z"/>
				<path class="st17" d="M1071.93,796.03c0,0-37.06,31.94-62.27,34.51c-25.21,2.58-34.75-5.52-34.75-5.52s14.86-12.34,23.8-32.25
					c2.64-5.87,8.2-9.9,14.61-10.45C1031.32,780.78,1065.44,780.07,1071.93,796.03z"/>
				<path class="st17" d="M1048.76,793.17c0,0,12.4,11.99,16.3,20.88c3.77,8.58,4.9,29.1,1.9,37.25c0,0,19.32-37.56,8.38-55.81
					C1063.75,776.14,1048.76,793.17,1048.76,793.17z"/>
				<path class="st6" d="M1081.52,1007.7c-1.75,117.2-0.48,92.71-13.3,103.83c-3.09,2.68-11.77,4.27-23.2,5.03
					c-35.94,2.39-99.11-3.54-101.51-10.18c-8.29-22.98-2.44-30.12-9.35-65.3c-0.72-3.74-1.61-7.79-2.66-12.2
					c-5.77-24.16-11.38-32.39,9.08-71.21c18.55-35.16,37.82-63.7,39.56-62.67c48.95,29.06,52.89,4.63,52.89,4.63
					S1082.38,950.53,1081.52,1007.7z"/>
				<path class="st32" d="M1206.96,1309.89l-37.63,101.26c0,0-10.21,0.98-19.99-1.83c-9-2.6-19.33-9.41-19.33-9.41
					s10.45-108.72,29.94-171.14L1206.96,1309.89z"/>
				<path class="st6" d="M1033.02,899.62c0,0,50.36,8.54,56.28,30.22c5.91,21.68,40.72,149.16,40.72,149.16s-25.6,4.6-37.43-7.23
					c-11.83-11.83-41.16-109.74-41.16-109.74L1033.02,899.62z"/>
				<path class="st33" d="M1045.01,1116.56c-35.94,2.39-99.11-3.54-101.51-10.18c-8.29-22.98-2.44-30.12-9.35-65.3l17.33-48.81
					c0,0-2.87,54.35,13.16,68.65c16.01,14.3,65.63,27.6,73.42,39.54C1041.82,1106.19,1044.29,1111.94,1045.01,1116.56z"/>
				<path class="st16" d="M1003.84,1093.69c0,0,35.45-7.89,41.17-4.75c5.72,3.15,19.7,14.6,21.45,18.59
					c1.75,3.99-12.74-3.03-17.45-4.29c-3.05-0.82-11.08,1.97-15.06,3.3c-16.73,5.58-26.99,2.71-26.99,2.71L1003.84,1093.69z"/>
				<path class="st6" d="M980.1,894.97c0,0-47.61,2.93-64.09,25.92c-23.2,32.36-69.22,170.25-42.84,188.64
					c29.7,20.71,135.18,5.42,135.18,5.42s3.51-16.41-1.37-24.34c-4.88-7.94-84.25-20.76-87.91-24.42
					c-3.66-3.66,45.79-71.43,45.79-82.42C964.85,972.78,980.1,894.97,980.1,894.97z"/>
				<path class="st16" d="M1046.73,1098.82c0,0,7.43,9.58,9.86,10.73c2.44,1.14,4.01,0.86,4.01,0.86l-5.01-9.01L1046.73,1098.82z"/>
				<path class="st16" d="M1045.01,1088.95l21.6,10.49c0,0-0.92,1.5-3.58,1.38c-2.66-0.12-9.37-2.57-9.37-2.57L1045.01,1088.95z"/>
			</g>
			<g>
				<g>
					<polygon class="st13" points="1056.59,1124.22 1227.44,1124.22 1278.84,996.42 1108.25,996.42 					"/>
					<polygon class="st23" points="1229.45,1119.24 1003.84,1119.24 1003.84,1124.22 1227.44,1124.22 					"/>
				</g>
				<path class="st6" d="M1184.32,1060.32c1.29-4.49-1.31-8.13-5.8-8.13c-4.49,0-9.18,3.64-10.47,8.13
					c-1.29,4.49,1.31,8.13,5.8,8.13C1178.34,1068.45,1183.03,1064.81,1184.32,1060.32z"/>
			</g>
		</g>
	</g>
	<g>
		<g>
			<path class="st34" d="M1948.92,1530.95h0.5c2.93,0,5.28-2.55,5.21-5.65l-7.91-362.81l-23.29-2.88l19.86,365.71
				C1943.46,1528.48,1945.93,1530.95,1948.92,1530.95z"/>
		</g>
		<g>
			<path class="st34" d="M1004.69,1530.95h-0.5c-2.93,0-5.28-2.55-5.21-5.65l7.91-362.81l23.29-2.88l-19.86,365.71
				C1010.14,1528.48,1007.67,1530.95,1004.69,1530.95z"/>
		</g>
		<path class="st34" d="M1978.14,1169.17H979.37c-7.51,0-13.6-6.09-13.6-13.6v-16.59c0-7.51,6.09-13.6,13.6-13.6h998.77
			c7.51,0,13.6,6.09,13.6,13.6v16.59C1991.74,1163.08,1985.65,1169.17,1978.14,1169.17z"/>
	</g>
	<path class="st35" d="M763.4,503.58c-3.76-93.16,74.32-134.54,154.15-134.54s166.72,20.69,174.25,144.56
		c4.84,79.69-37.64,128.73-159.97,128.73c-41.26,0-73.32-6.51-97.88-18.11l-61.15,54.34l30.05-75.1
		C776.24,578.69,765.02,543.78,763.4,503.58z"/>
	<g>
		<path class="st17" d="M2577.97,1530.55c0,0,2.25-17.5,7.45-27.9c5.2-10.41,38.31-3.78,38.31-3.78s6.62,5.68,8.04,32.16
			L2577.97,1530.55z"/>
		<path class="st17" d="M2465.17,1530.31c7.78-4.75,3.35-40.17,3.35-40.17s-36.25-29-41.23-6.8c-4.98,22.2-34.44,32.17-51.2,34.89
			c-11.57,1.88-15.16,8.29-16.27,12.08H2465.17z"/>
		<path class="st36" d="M2540.26,1272.68c-1.48,8.13-2.41,14.8-2.66,19.58c-3.37,65.73-55.33,216.02-64.62,219.53
			c-14.38,5.43-37.03-6.11-48.87-9.88c-4.91-1.57-8.22-6.52-7.13-11.54c25.73-118.29,35.19-288.63,38.63-389.48
			c1.74-50.8,10.46-85.89,10.46-85.89s126.73-33.81,127.48,8.96C2594.2,1061.8,2551.56,1210.24,2540.26,1272.68z"/>
		<path class="st17" d="M2540.26,1272.68l-84.66-171.8c1.74-50.8,10.46-85.89,10.46-85.89s126.73-33.81,127.48,8.96
			C2594.2,1061.8,2551.56,1210.24,2540.26,1272.68z"/>
		<path class="st36" d="M2512.06,1024.1l66.99,485.56c0,0,29.42,7.09,52.3,1.42c0,0,19.61-258.24,17.98-320.67
			c-1.63-62.43,14.08-167.06-3.59-178.59C2628.09,1000.27,2512.06,1024.1,2512.06,1024.1z"/>
		<path class="st25" d="M2658.81,1016.01c0.32,4.39-2.48,8.38-6.71,9.6c-9.35,2.71-20.12,4.6-40.9,8.9
			c-19.52,4.05-45.78,7.64-78.04,7.84c-51.32,0.33-70.75-17.36-70.75-17.36c-2.21,0.04,1.17-10.7,4.21-61.77
			c1.03-17.3,2.03-39.22,2.74-66.94c0.65-24.94,1.08-54.56,1.13-89.7c0.06-42.28,65.49-87.76,66.7-87.76l0.01,0.02
			c0,6.09,9.59,17.32,24.37,18.29c17.54,1.15,39.05-7.58,39.05-17.68c0-0.1,31.7,50.72,42.97,104.87
			C2649.28,851.58,2646.98,850.85,2658.81,1016.01z"/>
		<path class="st25" d="M2537.19,718.83c0,0-60.85-0.52-75.49,20.02c-14.64,20.54-46.75,131.02-30,167.79
			c16.76,36.76,48.11-15.21,65.51-37.73C2514.61,846.4,2537.19,718.83,2537.19,718.83z"/>
		<path class="st16" d="M2536.57,709.55l0.03,6.29c0,0-1.71,19.67,22.51,22.54c24.22,2.88,42.2-3.67,41.55-18.85
			c-2.18-11.75-4.21-23.82-4.37-33.55c-0.06-3.61,0.19-7.45,0.86-11.78l-46.94-0.94l-13.83,2.26L2536.57,709.55z"/>
		<path class="st37" d="M2536.39,675.52l0.18,34.03c4.99,2.32,10.61,3.73,16.92,3.73c21.57,0,35.52-15.82,42.8-27.3
			c-0.06-3.61,0.19-7.45,0.86-11.78l-46.94-0.94L2536.39,675.52z"/>
		<path class="st16" d="M2600.75,666.65c-5.45,29.31-43.27,28.35-59.61,26.5c-4.6-0.51-7.49-1.1-7.49-1.1
			c-5.19-1.39-8.08-9.55-9.42-20.25c-2.67-21.18,0.7-52.26,4.28-60.21c5.38-11.96,15.53-24.9,53.61-15.57
			C2620.21,605.37,2607.74,629.09,2600.75,666.65z"/>
		<path class="st26" d="M2474.97,801.17c0,0-23.53,51.97-22.85,67.55c0,0,11.65-0.4,22.85,2.94
			C2493.37,877.15,2474.97,801.17,2474.97,801.17z"/>
		<path class="st17" d="M2516.82,583.69c0,0,16.76-1.29,36.54-9.89c16.05-6.98,36.3,0.71,42.87,4.17c-0.18-1.06-0.6-2.5-1.6-3.95
			c0,0,2.95,2.09,3.39,5.02c0.3,0.22,0.44,0.38,0.36,0.43c0,0,3.35-0.61,5.5,0.36c0,0-1.5-0.21-2.04,0.75
			c-0.06,0.1-0.14,0.19-0.24,0.27c25.03,12.1,27.35,51.66,19.29,60.81c-9.69,11.01-24.33,35.94-24.33,35.94s-1.22-5.98,0.54-15.67
			c1.76-9.69-6.61-9.69-17.18-14.1c-10.57-4.41-1.76-16.74-11.01-24.23c-9.25-7.49-43.18-3.08-42.73-8.81
			C2513.56,610.19,2516.82,584.98,2516.82,583.69z"/>
		<path class="st26" d="M2608.42,898.53c-9.93,39.89-117.38,60.51-141.8,64.7c1.03-17.3,2.03-39.22,2.74-66.94L2608.42,898.53z"/>
		<path class="st16" d="M2584.84,911.5c1.02,0,23.89-3.41,27.98-5.46c4.09-2.05,22.82-28.66,10.56-35.49
			c-12.26-6.82-45.19,20.47-45.19,20.47L2584.84,911.5z"/>
		<path class="st25" d="M2445.79,919.41c0,0,88.42,4.8,147.75-7.91c0,0,1.5-17.14-17.15-24.76c0,0-92.48-19.6-114.7-14.14
			C2439.48,878.06,2445.79,919.41,2445.79,919.41z"/>
		<path class="st25" d="M2648.84,850.02c-18.35,22.12-42.34,40.19-68.78,44.42l-0.01-0.01c-0.22-0.33-8.01-12.15-6.54-29.53
			c0.68-8.04,3.33-17.27,9.63-27.11c1.94-3.02,3.67-6.56,5.2-10.48c14.44-36.84,12.29-107.86,12.29-107.86s61.32,6.42,80.43,33.72
			C2692.76,769.9,2677.84,815.04,2648.84,850.02z"/>
		<path class="st37" d="M2541.14,693.15c-4.6-0.51-7.49-1.1-7.49-1.1c-5.19-1.39-8.08-9.55-9.42-20.25
			c9.72,2.4,14.18,9.91,16.04,13.11C2541.1,686.35,2541.27,689.58,2541.14,693.15z"/>
		<path class="st16" d="M2516.44,709.73c0,0-21.18-34.95-4.71-36.47c16.47-1.52,23.09,9.63,25.46,13.72
			c2.38,4.09-0.62,22.56-0.62,22.56L2516.44,709.73z"/>
		<path class="st25" d="M2597.16,863.73c-0.65,4.43-1.97,8.5-3.61,12.13c-5.17,11.48-13.49,18.57-13.49,18.57l-0.01-0.01
			c-55-24.83-66.13-110.08-68-156.92c-0.75-18.83,0-31.45,0-31.45c24.81-8.22,31.79,6.06,31.79,6.06s29.3,69.67,44.49,115.2
			C2594.15,844.74,2597.9,858.63,2597.16,863.73z"/>
		<path class="st26" d="M2648.84,850.02c-18.35,22.12-42.34,40.19-68.78,44.42l-0.01-0.01c-55-24.83-66.13-110.08-68-156.92
			c0,0,26.03,94.4,61.45,127.39c6.4,5.97,13.12,9.93,20.04,10.96c0,0,44.67-12.62,54.04-24.51
			C2648.26,850.5,2648.66,850.07,2648.84,850.02z"/>
	</g>
	<g>
		<g>
			<polygon class="st38" points="1647.03,1125.39 1476.19,1125.39 1424.79,997.59 1595.38,997.59 			"/>
			<polygon class="st38" points="1474.18,1120.41 1699.79,1120.41 1699.79,1125.39 1476.19,1125.39 			"/>
		</g>
		<path class="st6" d="M1519.31,1061.49c-1.29-4.49,1.31-8.13,5.8-8.13c4.49,0,9.18,3.64,10.47,8.13s-1.31,8.13-5.8,8.13
			C1525.29,1069.62,1520.6,1065.98,1519.31,1061.49z"/>
	</g>
</g>
</svg>
